<svg width="16" height="16" viewBox="0 0 16 16" fill="none" xmlns="http://www.w3.org/2000/svg">
<rect width="16" height="16" fill="white"/>
<path d="M0.998786 13.3101C0.558898 13.7499 0.549921 14.531 1.00776 14.9888C1.47458 15.4467 2.25561 15.4377 2.68652 15.0068L8.00108 9.69221L13.3067 14.9978C13.7555 15.4467 14.5276 15.4467 14.9854 14.9888C15.4433 14.522 15.4433 13.7589 14.9944 13.3101L9.68881 8.00448L14.9944 2.68992C15.4433 2.24106 15.4522 1.46901 14.9854 1.01117C14.5276 0.553327 13.7555 0.553327 13.3067 1.00219L8.00108 6.30777L2.68652 1.00219C2.25561 0.562304 1.46561 0.544349 1.00776 1.01117C0.549921 1.46901 0.558898 2.25901 0.998786 2.68992L6.30437 8.00448L0.998786 13.3101Z" fill="#3F3D3D"/>
</svg>
