<svg width="926" height="209" viewBox="0 0 926 209" fill="none" xmlns="http://www.w3.org/2000/svg">
<path d="M1.044 42.59H25.578L56.028 142.466H56.376L86.826 42.59H110.316L68.208 167H44.196L1.044 42.59ZM123.641 42.59H146.087V167H123.641V42.59ZM169.689 42.59H219.105C230.589 42.59 240.449 45.026 248.685 49.898C257.037 54.654 263.417 61.73 267.825 71.126C272.233 80.406 274.437 91.658 274.437 104.882C274.437 118.106 272.291 129.358 267.999 138.638C263.707 147.918 257.443 154.994 249.207 159.866C241.087 164.622 231.285 167 219.801 167H169.689V42.59ZM217.365 148.034C225.833 148.034 232.561 146.178 237.549 142.466C242.653 138.638 246.249 133.534 248.337 127.154C250.425 120.774 251.469 113.35 251.469 104.882C251.469 91.658 248.859 81.16 243.639 73.388C238.535 65.5 229.777 61.556 217.365 61.556H192.135V148.034H217.365ZM323.269 42.59H346.933L393.739 167H369.379L359.635 138.116H310.045L300.475 167H276.811L323.269 42.59ZM353.893 119.846L335.101 63.122H334.753L316.135 119.846H353.893ZM419.732 42.59H444.265L474.716 142.466H475.064L505.514 42.59H529.004L486.896 167H462.884L419.732 42.59ZM571.386 103.49L532.758 42.59H556.944L584.262 87.308H584.61L611.928 42.59H636.114L597.312 103.142L638.55 167H613.146L584.088 119.846H583.914L555.204 167H529.452L571.386 103.49ZM642.929 167C642.929 159.46 644.321 152.674 647.105 146.642C650.005 140.494 654.065 134.926 659.285 129.938C664.505 124.95 671.523 119.498 680.339 113.582C681.847 112.654 683.355 111.726 684.863 110.798C691.011 106.97 695.651 103.78 698.783 101.228C702.031 98.676 704.525 95.834 706.265 92.702C708.005 89.454 708.875 85.684 708.875 81.392C708.875 77.796 708.295 74.606 707.135 71.822C705.975 69.038 704.003 66.776 701.219 65.036C698.551 63.296 694.839 62.426 690.083 62.426C684.631 62.426 680.223 63.528 676.859 65.732C673.495 67.82 671.001 70.894 669.377 74.954C667.869 78.898 667.115 83.77 667.115 89.57H645.539C645.539 80.638 647.163 72.75 650.411 65.906C653.775 59.062 658.821 53.726 665.549 49.898C672.277 46.07 680.687 44.156 690.779 44.156C698.435 44.156 705.279 45.606 711.311 48.506C717.459 51.406 722.273 55.582 725.753 61.034C729.349 66.486 731.147 72.924 731.147 80.348C731.147 87.308 729.523 93.572 726.275 99.14C723.143 104.708 719.199 109.522 714.443 113.582C709.687 117.526 703.771 121.76 696.695 126.284L694.955 127.328L693.563 128.198C689.735 130.518 686.429 132.664 683.645 134.636C680.977 136.608 678.541 138.754 676.337 141.074C674.249 143.394 672.625 145.888 671.465 148.556V148.904H730.103V167H642.929Z" fill="#FF5310"/>
<g clip-path="url(#clip0_2340_5949)">
<path d="M900.69 141.608L904.687 136.937C908.741 131.979 912.301 126.877 915.373 121.626C918.441 116.379 920.873 110.929 922.671 105.279C924.465 99.6293 925.364 93.9764 925.364 88.3266C925.364 80.2561 923.453 72.7295 919.631 65.7502C915.809 58.7742 910.478 53.2371 903.645 49.1423C896.81 45.0474 889.05 43 880.362 43C872.136 43 864.576 45.0185 857.686 49.0554C850.792 53.0923 845.351 58.5424 841.354 65.4026C837.358 72.2659 835.359 79.7925 835.359 87.979C835.359 96.629 837.707 104.848 842.395 112.632C847.087 120.416 853.486 126.732 861.595 131.574L874.105 110.813C869.588 108.044 866.083 104.616 863.593 100.521C861.1 96.4294 859.859 92.2476 859.859 87.979C859.859 84.1738 860.754 80.7132 862.552 77.6002C864.347 74.4872 866.836 72.0084 870.025 70.1606C873.209 68.316 876.653 67.392 880.362 67.392C884.3 67.392 887.834 68.316 890.961 70.1606C894.087 72.0052 896.522 74.5162 898.259 77.6871C899.995 80.8613 900.865 84.4056 900.865 88.3266C900.865 95.8242 898.229 103.579 892.959 111.595C887.685 119.611 881.665 126.935 874.888 133.566C868.11 140.201 860.147 147.319 850.996 154.932C844.277 160.585 839.841 164.274 838.337 166.003H873.184" fill="#FF5310"/>
<path d="M849.149 151.13C842.026 145.056 836.015 138.988 830.476 133.566C823.699 126.935 817.679 119.614 812.405 111.595C807.135 103.579 804.499 95.8242 804.499 88.3266C804.499 84.4056 805.369 80.8613 807.106 77.6871C808.842 74.5162 811.277 72.0084 814.403 70.1606C817.53 68.316 821.067 67.392 825.002 67.392C827.838 67.392 830.519 67.9361 833.047 69.0145C833.616 67.7912 834.243 66.5872 834.932 65.4026C838.573 59.1508 843.423 54.0741 849.473 50.166C848.884 49.7861 848.289 49.4127 847.678 49.0554C840.788 45.0185 833.231 43 825.002 43C816.314 43 808.554 45.0474 801.719 49.1423C794.887 53.2371 789.555 58.7742 785.733 65.7502C781.911 72.7295 780 80.2528 780 88.3266C780 93.9796 780.899 99.6325 782.693 105.279C784.491 110.932 786.923 116.382 789.991 121.626C793.063 126.877 796.623 131.979 800.678 136.937L804.674 141.608L832.18 166H832.242" fill="#FF5310"/>
</g>
<defs>
<clipPath id="clip0_2340_5949">
<rect width="145.364" height="123" fill="white" transform="translate(780 43)"/>
</clipPath>
</defs>
</svg>
