<svg width="731" height="125" viewBox="0 0 731 125" fill="none" xmlns="http://www.w3.org/2000/svg">
<path d="M0.044 0.589994H24.578L55.028 100.466H55.376L85.826 0.589994H109.316L67.208 125H43.196L0.044 0.589994ZM122.641 0.589994H145.087V125H122.641V0.589994ZM168.689 0.589994H218.105C229.589 0.589994 239.449 3.02599 247.685 7.89799C256.037 12.654 262.417 19.73 266.825 29.126C271.233 38.406 273.437 49.658 273.437 62.882C273.437 76.106 271.291 87.358 266.999 96.638C262.707 105.918 256.443 112.994 248.207 117.866C240.087 122.622 230.285 125 218.801 125H168.689V0.589994ZM216.365 106.034C224.833 106.034 231.561 104.178 236.549 100.466C241.653 96.638 245.249 91.534 247.337 85.154C249.425 78.774 250.469 71.35 250.469 62.882C250.469 49.658 247.859 39.16 242.639 31.388C237.535 23.5 228.777 19.556 216.365 19.556H191.135V106.034H216.365ZM322.269 0.589994H345.933L392.739 125H368.379L358.635 96.116H309.045L299.475 125H275.811L322.269 0.589994ZM352.893 77.846L334.101 21.122H333.753L315.135 77.846H352.893ZM418.732 0.589994H443.265L473.716 100.466H474.064L504.514 0.589994H528.004L485.896 125H461.884L418.732 0.589994ZM570.386 61.49L531.758 0.589994H555.944L583.262 45.308H583.61L610.928 0.589994H635.114L596.312 61.142L637.55 125H612.146L583.088 77.846H582.914L554.204 125H528.452L570.386 61.49ZM641.929 125C641.929 117.46 643.321 110.674 646.105 104.642C649.005 98.494 653.065 92.926 658.285 87.938C663.505 82.95 670.523 77.498 679.339 71.582C680.847 70.654 682.355 69.726 683.863 68.798C690.011 64.97 694.651 61.78 697.783 59.228C701.031 56.676 703.525 53.834 705.265 50.702C707.005 47.454 707.875 43.684 707.875 39.392C707.875 35.796 707.295 32.606 706.135 29.822C704.975 27.038 703.003 24.776 700.219 23.036C697.551 21.296 693.839 20.426 689.083 20.426C683.631 20.426 679.223 21.528 675.859 23.732C672.495 25.82 670.001 28.894 668.377 32.954C666.869 36.898 666.115 41.77 666.115 47.57H644.539C644.539 38.638 646.163 30.75 649.411 23.906C652.775 17.062 657.821 11.726 664.549 7.89799C671.277 4.06999 679.687 2.15599 689.779 2.15599C697.435 2.15599 704.279 3.60599 710.311 6.50599C716.459 9.40599 721.273 13.582 724.753 19.034C728.349 24.486 730.147 30.924 730.147 38.348C730.147 45.308 728.523 51.572 725.275 57.14C722.143 62.708 718.199 67.522 713.443 71.582C708.687 75.526 702.771 79.76 695.695 84.284L693.955 85.328L692.563 86.198C688.735 88.518 685.429 90.664 682.645 92.636C679.977 94.608 677.541 96.754 675.337 99.074C673.249 101.394 671.625 103.888 670.465 106.556V106.904H729.103V125H641.929Z" fill="#FF5310"/>
</svg>
