<svg width="1008" height="209" viewBox="0 0 1008 209" fill="none" xmlns="http://www.w3.org/2000/svg">
<path d="M42.044 42.59H66.578L97.028 142.466H97.376L127.826 42.59H151.316L109.208 167H85.196L42.044 42.59ZM164.641 42.59H187.087V167H164.641V42.59ZM210.689 42.59H260.105C271.589 42.59 281.449 45.026 289.685 49.898C298.037 54.654 304.417 61.73 308.825 71.126C313.233 80.406 315.437 91.658 315.437 104.882C315.437 118.106 313.291 129.358 308.999 138.638C304.707 147.918 298.443 154.994 290.207 159.866C282.087 164.622 272.285 167 260.801 167H210.689V42.59ZM258.365 148.034C266.833 148.034 273.561 146.178 278.549 142.466C283.653 138.638 287.249 133.534 289.337 127.154C291.425 120.774 292.469 113.35 292.469 104.882C292.469 91.658 289.859 81.16 284.639 73.388C279.535 65.5 270.777 61.556 258.365 61.556H233.135V148.034H258.365ZM364.269 42.59H387.933L434.739 167H410.379L400.635 138.116H351.045L341.475 167H317.811L364.269 42.59ZM394.893 119.846L376.101 63.122H375.753L357.135 119.846H394.893ZM460.732 42.59H485.265L515.716 142.466H516.064L546.514 42.59H570.004L527.896 167H503.884L460.732 42.59ZM612.386 103.49L573.758 42.59H597.944L625.262 87.308H625.61L652.928 42.59H677.114L638.312 103.142L679.55 167H654.146L625.088 119.846H624.914L596.204 167H570.452L612.386 103.49ZM683.929 167C683.929 159.46 685.321 152.674 688.105 146.642C691.005 140.494 695.065 134.926 700.285 129.938C705.505 124.95 712.523 119.498 721.339 113.582C722.847 112.654 724.355 111.726 725.863 110.798C732.011 106.97 736.651 103.78 739.783 101.228C743.031 98.676 745.525 95.834 747.265 92.702C749.005 89.454 749.875 85.684 749.875 81.392C749.875 77.796 749.295 74.606 748.135 71.822C746.975 69.038 745.003 66.776 742.219 65.036C739.551 63.296 735.839 62.426 731.083 62.426C725.631 62.426 721.223 63.528 717.859 65.732C714.495 67.82 712.001 70.894 710.377 74.954C708.869 78.898 708.115 83.77 708.115 89.57H686.539C686.539 80.638 688.163 72.75 691.411 65.906C694.775 59.062 699.821 53.726 706.549 49.898C713.277 46.07 721.687 44.156 731.779 44.156C739.435 44.156 746.279 45.606 752.311 48.506C758.459 51.406 763.273 55.582 766.753 61.034C770.349 66.486 772.147 72.924 772.147 80.348C772.147 87.308 770.523 93.572 767.275 99.14C764.143 104.708 760.199 109.522 755.443 113.582C750.687 117.526 744.771 121.76 737.695 126.284L735.955 127.328L734.563 128.198C730.735 130.518 727.429 132.664 724.645 134.636C721.977 136.608 719.541 138.754 717.337 141.074C715.249 143.394 713.625 145.888 712.465 148.556V148.904H771.103V167H683.929Z" fill="#FF5310"/>
<g clip-path="url(#clip0_2340_5949)">
<path d="M941.69 141.608L945.687 136.937C949.741 131.979 953.301 126.877 956.373 121.626C959.441 116.379 961.873 110.929 963.671 105.279C965.465 99.6293 966.364 93.9764 966.364 88.3266C966.364 80.256 964.453 72.7295 960.631 65.7502C956.809 58.7742 951.478 53.2371 944.645 49.1423C937.81 45.0474 930.05 43 921.362 43C913.136 43 905.576 45.0185 898.686 49.0554C891.792 53.0923 886.351 58.5424 882.354 65.4026C878.358 72.2659 876.359 79.7925 876.359 87.979C876.359 96.629 878.707 104.848 883.395 112.632C888.087 120.416 894.486 126.732 902.595 131.574L915.105 110.813C910.588 108.044 907.083 104.616 904.593 100.521C902.1 96.4294 900.859 92.2476 900.859 87.979C900.859 84.1738 901.754 80.7132 903.552 77.6002C905.347 74.4872 907.836 72.0084 911.025 70.1606C914.209 68.316 917.653 67.392 921.362 67.392C925.3 67.392 928.834 68.316 931.961 70.1606C935.087 72.0052 937.522 74.5162 939.259 77.6871C940.995 80.8613 941.865 84.4056 941.865 88.3266C941.865 95.8242 939.229 103.579 933.959 111.595C928.685 119.611 922.665 126.935 915.888 133.566C909.11 140.201 901.147 147.319 891.996 154.932C885.277 160.585 880.841 164.275 879.337 166.003H914.184" fill="#FF5310"/>
<path d="M890.149 151.13C883.026 145.056 877.015 138.988 871.476 133.566C864.699 126.935 858.679 119.614 853.405 111.595C848.135 103.579 845.499 95.8242 845.499 88.3266C845.499 84.4056 846.369 80.8613 848.106 77.6871C849.842 74.5162 852.277 72.0084 855.403 70.1606C858.53 68.316 862.067 67.392 866.002 67.392C868.838 67.392 871.519 67.9361 874.047 69.0145C874.616 67.7912 875.243 66.5872 875.932 65.4026C879.573 59.1508 884.423 54.0741 890.473 50.166C889.884 49.7861 889.289 49.4127 888.678 49.0554C881.788 45.0185 874.231 43 866.002 43C857.314 43 849.554 45.0474 842.719 49.1423C835.887 53.2371 830.555 58.7742 826.733 65.7502C822.911 72.7295 821 80.2528 821 88.3266C821 93.9796 821.899 99.6325 823.693 105.279C825.491 110.932 827.923 116.382 830.991 121.626C834.063 126.877 837.623 131.979 841.678 136.937L845.674 141.608L873.18 166H873.242" fill="#FF5310"/>
</g>
<defs>
<clipPath id="clip0_2340_5949">
<rect width="145.364" height="123" fill="white" transform="translate(821 43)"/>
</clipPath>
</defs>
</svg>
