<svg width="146" height="123" viewBox="0 0 146 123" fill="none" xmlns="http://www.w3.org/2000/svg">
<g clip-path="url(#clip0_2337_2003)">
<path d="M120.69 98.608L124.687 93.9369C128.741 88.9793 132.301 83.8768 135.373 78.6263C138.441 73.3789 140.873 67.9288 142.671 62.2791C144.465 56.6293 145.364 50.9764 145.364 45.3266C145.364 37.256 143.453 29.7295 139.631 22.7502C135.809 15.7742 130.478 10.2371 123.645 6.14227C116.81 2.04742 109.05 0 100.362 0C92.136 0 84.5763 2.01845 77.686 6.05535C70.7924 10.0923 65.3506 15.5424 61.3541 22.4026C57.3576 29.2659 55.3594 36.7925 55.3594 44.979C55.3594 53.629 57.7068 61.8477 62.3952 69.6318C67.0869 77.4158 73.4858 83.7319 81.5951 88.5737L94.1051 67.8129C89.5881 65.0444 86.0831 61.6159 83.5934 57.521C81.1004 53.4294 79.8588 49.2476 79.8588 44.979C79.8588 41.1738 80.7544 37.7132 82.5522 34.6002C84.3467 31.4872 86.8365 29.0084 90.0246 27.1606C93.2095 25.316 96.653 24.392 100.362 24.392C104.3 24.392 107.834 25.316 110.961 27.1606C114.087 29.0052 116.522 31.5162 118.259 34.6871C119.995 37.8613 120.865 41.4056 120.865 45.3266C120.865 52.8242 118.229 60.5793 112.959 68.5952C107.685 76.611 101.665 83.9348 94.8876 90.5663C88.1104 97.2012 80.1466 104.319 70.9961 111.932C64.2771 117.585 59.8409 121.275 58.3373 123.003H93.1836" fill="#FF5310"/>
<path d="M69.1493 108.13C62.0262 102.056 56.0153 95.9875 50.4765 90.5663C43.6993 83.9348 37.6787 76.6142 32.4051 68.5952C27.1346 60.5793 24.4994 52.8242 24.4994 45.3266C24.4994 41.4056 25.3692 37.8613 27.1055 34.6871C28.8419 31.5162 31.2766 29.0084 34.4033 27.1606C37.53 25.316 41.0673 24.392 45.0024 24.392C47.838 24.392 50.5185 24.9361 53.047 26.0145C53.6161 24.7912 54.2434 23.5872 54.9321 22.4026C58.5729 16.1508 63.423 11.0741 69.4727 7.16599C68.8842 6.78612 68.2893 6.41269 67.6781 6.05535C60.7878 2.01845 53.2313 0 45.0024 0C36.3142 0 28.5541 2.04742 21.7187 6.14227C14.8865 10.2371 9.55468 15.7742 5.73281 22.7502C1.91094 29.7295 0 37.2528 0 45.3266C0 50.9796 0.898883 56.6325 2.69342 62.2791C4.49118 67.932 6.92269 73.3821 9.99118 78.6263C13.0629 83.8768 16.6229 88.9793 20.6775 93.9369L24.674 98.608L52.1805 123H52.2419" fill="#FF5310"/>
</g>
<defs>
<clipPath id="clip0_2337_2003">
<rect width="145.364" height="123" fill="white"/>
</clipPath>
</defs>
</svg>
