<svg width="170" height="24" viewBox="0 0 170 24" fill="none" xmlns="http://www.w3.org/2000/svg">
<path d="M32.9046 0H37.2606C37.5716 0 37.8214 0.259182 37.8214 0.58435V23.4156C37.8214 23.7359 37.5716 24 37.2606 24H32.9046C32.5936 24 32.3438 23.7408 32.3438 23.4156V0.58435C32.3438 0.263898 32.5936 0 32.9046 0Z" fill="black"/>
<path d="M55.176 0C57.354 0 59.1263 0.0188614 60.7435 0.0565505C65.8253 0.179087 69.7662 3.45887 70.7844 8.41621C71.5906 12.3275 71.1614 15.659 69.4786 18.5994C67.8003 21.5259 65.2218 23.2507 61.8086 23.722C60.6492 23.8819 59.3905 23.9574 57.7265 23.9762C56.086 23.9906 56.2086 23.9906 54.568 23.9906H53.1773L48.3031 24C48.02 24 47.7891 23.7597 47.7891 23.4628V0.58435C47.7891 0.263898 48.0389 0 48.3503 0H53.1773H55.1666H55.176ZM53.1867 19.1793C53.1867 19.4996 53.4366 19.7637 53.7475 19.7637H55.8172C56.8966 19.7637 58.1696 19.7587 59.4283 19.7116C59.4422 19.7116 59.4517 19.7116 59.466 19.7116C62.1294 19.4618 63.8545 18.8541 64.8259 16.6723C65.9147 14.2265 66.0891 11.5735 65.3679 8.56701C65.3679 8.54818 65.3585 8.52932 65.3535 8.51517C64.4346 5.52287 62.2143 4.32595 59.4471 4.09974C58.1413 4.04318 56.8544 4.03847 55.8739 4.03847H53.743C53.432 4.03847 53.1822 4.29765 53.1822 4.62282V19.1838L53.1867 19.1793Z" fill="black"/>
<path d="M95.0802 23.6231L93.0766 18.6703C92.9872 18.4534 92.7845 18.3123 92.558 18.3123H82.3945C82.1684 18.3123 81.9658 18.4534 81.8808 18.6654L79.8489 23.6371C79.7594 23.854 79.5568 23.9906 79.3307 23.9906L75.4178 23.9811C75.0173 23.9811 74.7486 23.5522 74.9041 23.1704L84.2377 0.353424C84.3276 0.136684 84.5302 0 84.7518 0H90.2294C90.4555 0 90.6586 0.141398 90.748 0.358139L100.007 23.1753C100.162 23.5616 99.8884 23.9857 99.488 23.9857H95.6033C95.3773 23.9857 95.1746 23.8397 95.0848 23.6231M84.2849 14.4717H90.668C90.9929 14.4717 91.2145 14.1227 91.0873 13.8119L87.8865 5.95167C87.731 5.56527 87.1981 5.56527 87.0426 5.95167L83.8607 13.8119C83.7335 14.1227 83.9551 14.4717 84.2804 14.4717H84.2849Z" fill="black"/>
<path d="M19.8032 0.358139L12.9442 17.299C12.7888 17.6853 12.256 17.6853 12.1004 17.299L5.24146 0.358139C5.1519 0.141398 4.9492 0 4.72762 0H0.560418C0.159726 0 -0.113706 0.424125 0.0465781 0.810523L9.29084 23.6416C9.3804 23.8585 9.58311 24 9.80468 24H15.2445C15.471 24 15.6736 23.8585 15.7586 23.6416L25.0027 0.810523C25.1582 0.428841 24.885 0 24.4842 0H20.3169C20.0908 0 19.8881 0.141398 19.8032 0.358139Z" fill="black"/>
<path d="M145.341 15.7275H141.986V12.8633H139.859V20.638H141.986V17.5237H145.341V20.638H147.463V12.8633H145.341V15.7275Z" fill="black"/>
<path d="M150.526 15.8405C150.704 14.791 151.285 14.2428 152.226 14.2428C153.178 14.2428 153.824 14.8891 153.855 15.8405H150.526ZM152.238 12.6602C149.898 12.6602 148.328 14.2749 148.328 16.6969C148.328 19.2163 149.88 20.8175 152.305 20.8175C154.242 20.8175 155.571 19.929 156.069 18.2467H153.774C153.566 18.8613 153.08 19.1695 152.351 19.1695C151.254 19.1695 150.594 18.5199 150.539 17.3903H156.069C156.069 17.1172 156.085 17.0214 156.085 16.8912C156.085 14.2749 154.6 12.6602 152.238 12.6602Z" fill="black"/>
<path d="M159.698 12.7968C158.946 12.9462 157.016 13.5264 157.016 16.4702V20.6375H159.166V17.1957C159.166 15.9209 159.344 15.3226 159.875 14.9366C160.201 14.6763 160.671 14.5322 161.217 14.5322C161.444 14.5322 161.541 14.5492 161.8 14.5963V12.8322C161.8 12.8322 160.942 12.5538 159.698 12.7968Z" fill="black"/>
<path d="M166.057 19.1985C164.923 19.1985 164.262 18.2791 164.262 16.7444C164.262 15.1934 164.91 14.2888 166.057 14.2888C167.186 14.2888 167.834 15.1772 167.834 16.7282C167.834 18.2961 167.186 19.1985 166.057 19.1985ZM166.057 12.6582C163.645 12.659 162.094 14.2571 162.094 16.7444C162.094 19.2144 163.645 20.8155 166.057 20.8155C168.445 20.8155 169.999 19.2144 169.999 16.7444C169.999 14.2571 168.445 12.6582 166.057 12.6582Z" fill="black"/>
<path d="M134.112 11.9701L130.828 9.54492V16.4528L134.112 14.1771V11.9701Z" fill="black"/>
<path d="M134.112 21.8468V17.1016L130.828 19.4618L134.112 21.8468Z" fill="black"/>
<path d="M125.094 21.5698L128.378 23.956V14.0776L125.094 11.6523V21.5698Z" fill="black"/>
<path opacity="0.9" d="M166.654 7.88036C166.484 7.88036 166.298 7.8598 166.099 7.81868V7.11345C166.251 7.13107 166.375 7.13989 166.469 7.13989C166.604 7.13989 166.728 7.11345 166.839 7.06055C166.957 7.00766 167.065 6.91655 167.165 6.78726C167.266 6.65797 167.342 6.48167 167.395 6.25837L165.578 1.80664H166.522L167.836 5.24461H167.854L169.088 1.80664H169.996L168.215 6.40822C168.074 6.77847 167.927 7.06938 167.774 7.28095C167.627 7.49249 167.463 7.64532 167.28 7.73933C167.098 7.83335 166.889 7.88036 166.654 7.88036Z" fill="black"/>
<path opacity="0.9" d="M163.43 6.42639C163.107 6.42639 162.828 6.36467 162.593 6.24126C162.363 6.11782 162.181 5.95329 162.046 5.74761H161.817V2.33608H162.046C162.187 2.14802 162.372 1.99228 162.601 1.86887C162.836 1.73958 163.113 1.67492 163.43 1.67492C163.812 1.67492 164.157 1.77188 164.462 1.96583C164.768 2.1539 165.009 2.4301 165.185 2.79446C165.362 3.15294 165.45 3.57314 165.45 4.05507C165.45 4.53695 165.362 4.95715 165.185 5.31563C165.009 5.67411 164.768 5.95035 164.462 6.14427C164.157 6.33234 163.812 6.42639 163.43 6.42639ZM161.164 0H162.028V6.30294H161.164V0ZM163.289 5.71233C163.559 5.71233 163.789 5.63888 163.977 5.49193C164.171 5.33914 164.312 5.13639 164.4 4.8837C164.494 4.63101 164.541 4.35477 164.541 4.05507C164.541 3.74944 164.494 3.4703 164.4 3.21761C164.312 2.96488 164.171 2.76507 163.977 2.61817C163.789 2.47122 163.559 2.39777 163.289 2.39777C163.03 2.39777 162.807 2.46537 162.619 2.60051C162.431 2.72984 162.287 2.92081 162.187 3.1735C162.087 3.42035 162.037 3.71421 162.037 4.05507C162.037 4.39004 162.087 4.6839 162.187 4.93659C162.287 5.1834 162.431 5.37441 162.619 5.50959C162.807 5.64476 163.03 5.71233 163.289 5.71233Z" fill="black"/>
<path opacity="0.9" d="M156.082 6.42639C155.7 6.42639 155.356 6.33234 155.05 6.14427C154.744 5.95035 154.503 5.67411 154.327 5.31563C154.15 4.95715 154.062 4.53695 154.062 4.05507C154.062 3.57314 154.15 3.15294 154.327 2.79446C154.503 2.4301 154.744 2.1539 155.05 1.96583C155.356 1.77188 155.7 1.67492 156.082 1.67492C156.405 1.67492 156.681 1.73958 156.911 1.86887C157.14 1.99228 157.325 2.1539 157.466 2.3537H157.695V5.77405H157.466C157.325 5.96208 157.137 6.11782 156.902 6.24126C156.673 6.36467 156.399 6.42639 156.082 6.42639ZM156.223 5.71233C156.482 5.71233 156.705 5.64476 156.893 5.50959C157.081 5.37441 157.225 5.1834 157.325 4.93659C157.425 4.6839 157.475 4.39004 157.475 4.05507C157.475 3.71421 157.425 3.42035 157.325 3.1735C157.225 2.92081 157.081 2.72984 156.893 2.60051C156.705 2.46537 156.482 2.39777 156.223 2.39777C155.953 2.39777 155.72 2.47122 155.526 2.61817C155.338 2.76507 155.197 2.96488 155.103 3.21761C155.009 3.4703 154.962 3.74944 154.962 4.05507C154.962 4.35477 155.009 4.63101 155.103 4.8837C155.197 5.13639 155.338 5.33914 155.526 5.49193C155.72 5.63888 155.953 5.71233 156.223 5.71233ZM157.484 0H158.348V6.30294H157.484V0Z" fill="black"/>
<path opacity="0.9" d="M151.426 6.4351C150.961 6.4351 150.561 6.3352 150.226 6.1354C149.891 5.92971 149.635 5.64469 149.459 5.28032C149.288 4.91596 149.203 4.50454 149.203 4.04616C149.203 3.57601 149.291 3.16169 149.468 2.80321C149.65 2.44473 149.909 2.16555 150.244 1.96575C150.579 1.76595 150.973 1.66602 151.426 1.66602C151.873 1.66602 152.254 1.76007 152.572 1.94813C152.895 2.13617 153.139 2.40358 153.304 2.75032C153.474 3.09118 153.56 3.49373 153.56 3.95799C153.56 4.12256 153.557 4.23129 153.551 4.28418H149.635V3.6054H152.66C152.66 3.37032 152.607 3.15875 152.501 2.97068C152.402 2.78265 152.254 2.63571 152.06 2.52992C151.873 2.42414 151.652 2.37124 151.399 2.37124C151.152 2.37124 150.929 2.42708 150.729 2.53875C150.529 2.65042 150.373 2.8091 150.261 3.01479C150.15 3.21459 150.094 3.44672 150.094 3.71119C150.094 3.88748 150.094 4.06378 150.094 4.24012C150.094 4.50454 150.144 4.75139 150.244 4.98058C150.35 5.20392 150.503 5.38611 150.703 5.52713C150.902 5.6623 151.149 5.72987 151.443 5.72987C151.684 5.72987 151.887 5.68581 152.052 5.59768C152.222 5.50951 152.351 5.40667 152.44 5.28911C152.528 5.16571 152.59 5.0423 152.625 4.9189H153.507C153.377 5.37728 153.139 5.74459 152.792 6.02079C152.445 6.29702 151.99 6.4351 151.426 6.4351Z" fill="black"/>
<path opacity="0.9" d="M146.802 2.66204H147.436C147.56 2.35645 147.719 2.12138 147.913 1.95681C148.113 1.7864 148.356 1.70117 148.645 1.70117C148.798 1.70117 148.936 1.71 149.059 1.72762V2.55625C148.953 2.53863 148.856 2.52981 148.768 2.52981C148.509 2.52981 148.277 2.59153 148.071 2.71493C147.866 2.83834 147.704 3.00879 147.587 3.22621C147.475 3.44366 147.419 3.69341 147.419 3.97553L146.802 2.66204ZM146.555 1.80696H147.419V6.30275H146.555V1.80696Z" fill="black"/>
<path opacity="0.9" d="M143.675 6.4351C143.211 6.4351 142.811 6.3352 142.476 6.1354C142.141 5.92971 141.885 5.64469 141.709 5.28032C141.538 4.91596 141.453 4.50454 141.453 4.04616C141.453 3.57601 141.541 3.16169 141.718 2.80321C141.9 2.44473 142.158 2.16555 142.494 1.96575C142.829 1.76595 143.222 1.66602 143.675 1.66602C144.122 1.66602 144.504 1.76007 144.821 1.94813C145.145 2.13617 145.389 2.40358 145.554 2.75032C145.724 3.09118 145.809 3.49373 145.809 3.95799C145.809 4.12256 145.806 4.23129 145.8 4.28418H141.885V3.6054H144.91C144.91 3.37032 144.857 3.15875 144.751 2.97068C144.651 2.78265 144.504 2.63571 144.31 2.52992C144.122 2.42414 143.902 2.37124 143.649 2.37124C143.402 2.37124 143.178 2.42708 142.979 2.53875C142.779 2.65042 142.623 2.8091 142.511 3.01479C142.399 3.21459 142.344 3.44672 142.344 3.71119C142.344 3.88748 142.344 4.06378 142.344 4.24012C142.344 4.50454 142.394 4.75139 142.494 4.98058C142.599 5.20392 142.752 5.38611 142.952 5.52713C143.152 5.6623 143.399 5.72987 143.693 5.72987C143.934 5.72987 144.137 5.68581 144.301 5.59768C144.472 5.50951 144.601 5.40667 144.689 5.28911C144.778 5.16571 144.839 5.0423 144.875 4.9189H145.756C145.627 5.37728 145.389 5.74459 145.042 6.02079C144.695 6.29702 144.24 6.4351 143.675 6.4351Z" fill="black"/>
<path opacity="0.9" d="M134.711 1.80859H135.646L136.598 5.29063H136.616L137.551 1.80859H138.423L139.358 5.29063H139.376L140.337 1.80859H141.237L139.843 6.30438H138.953L137.983 2.83997H137.965L136.995 6.30438H136.104L134.711 1.80859Z" fill="black"/>
<path opacity="0.9" d="M132.249 6.4351C131.79 6.4351 131.39 6.3352 131.05 6.1354C130.714 5.9356 130.456 5.65642 130.274 5.29794C130.091 4.93357 130 4.51926 130 4.05499C130 3.59072 130.091 3.17637 130.274 2.812C130.456 2.44764 130.714 2.16555 131.05 1.96575C131.39 1.76595 131.793 1.66602 132.258 1.66602C132.716 1.66602 133.113 1.76595 133.448 1.96575C133.783 2.16555 134.042 2.44764 134.224 2.812C134.407 3.17052 134.498 3.5819 134.498 4.04616C134.498 4.51631 134.407 4.93357 134.224 5.29794C134.042 5.65642 133.78 5.9356 133.439 6.1354C133.104 6.3352 132.708 6.4351 132.249 6.4351ZM132.258 5.72108C132.552 5.72108 132.798 5.65053 132.998 5.50951C133.204 5.3626 133.354 5.16276 133.448 4.91007C133.548 4.65738 133.598 4.36941 133.598 4.04616C133.598 3.55839 133.483 3.16169 133.254 2.85611C133.025 2.54463 132.693 2.3889 132.258 2.3889C131.958 2.3889 131.705 2.45941 131.499 2.60047C131.299 2.74149 131.15 2.93839 131.05 3.19108C130.95 3.44378 130.9 3.73175 130.9 4.05499C130.9 4.54865 131.014 4.95119 131.244 5.26267C131.473 5.56829 131.811 5.72108 132.258 5.72108Z" fill="black"/>
<path opacity="0.9" d="M125.094 0H127.722C128.351 0 128.85 0.155735 129.221 0.467207C129.597 0.772833 129.785 1.24298 129.785 1.87766C129.785 2.30081 129.697 2.6534 129.521 2.93552C129.35 3.21172 129.109 3.41741 128.798 3.55258C128.492 3.68187 128.133 3.7465 127.722 3.7465H126.064V6.30294H125.094V0ZM127.677 2.90908C127.925 2.90908 128.127 2.8738 128.286 2.80329C128.451 2.72689 128.574 2.61228 128.656 2.45949C128.739 2.30669 128.78 2.11274 128.78 1.87766C128.78 1.52507 128.689 1.26355 128.507 1.0931C128.324 0.922685 128.048 0.837458 127.677 0.837458H126.064V2.90908H127.677Z" fill="black"/>
</svg>
