<svg width="72" height="32" viewBox="0 0 72 32" fill="none" xmlns="http://www.w3.org/2000/svg">
<path d="M23.6796 0.5H26.814C27.0382 0.5 27.2179 0.685008 27.2179 0.91713V17.2154C27.2179 17.4441 27.0382 17.6324 26.814 17.6324H23.6796C23.4555 17.6324 23.2758 17.4475 23.2758 17.2154V0.91713C23.2758 0.688375 23.4555 0.5 23.6796 0.5Z" fill="#FF5310"/>
<path d="M39.7091 0.5C41.2764 0.5 42.5521 0.51347 43.7155 0.540381C47.3726 0.627819 50.2088 2.96913 50.9418 6.50799C51.5216 9.30005 51.2132 11.6784 50.002 13.7774C48.7941 15.8665 46.9385 17.0976 44.4824 17.434C43.6479 17.5485 42.742 17.6021 41.5444 17.6156C40.3637 17.6257 40.452 17.6257 39.2713 17.6257H38.2707L34.7629 17.6324C34.5592 17.6324 34.3931 17.461 34.3931 17.2491V0.91713C34.3931 0.688375 34.5728 0.5 34.7966 0.5H38.2707H39.7023H39.7091ZM38.2775 14.1913C38.2775 14.42 38.4572 14.6083 38.681 14.6083H40.1704C40.9472 14.6083 41.8633 14.6049 42.7692 14.5712C42.7793 14.5712 42.7861 14.5712 42.7963 14.5712C44.7131 14.3931 45.9546 13.9592 46.6536 12.4015C47.4372 10.6557 47.5628 8.76184 47.0438 6.61563C47.0438 6.60219 47.037 6.58872 47.0336 6.57865C46.372 4.44254 44.7742 3.58811 42.7827 3.42662C41.8429 3.38626 40.9167 3.3829 40.2112 3.3829H38.6776C38.4538 3.3829 38.2741 3.5679 38.2741 3.80003V14.1947L38.2775 14.1913Z" fill="#FF5310"/>
<path d="M68.423 17.3633L66.9812 13.8279C66.9166 13.6733 66.7709 13.5723 66.6082 13.5723H59.2939C59.1309 13.5723 58.9851 13.6733 58.924 13.8245L57.4618 17.3734C57.3975 17.5283 57.2515 17.6257 57.0888 17.6257L54.273 17.619C53.9846 17.619 53.791 17.3128 53.9031 17.0403L60.6203 0.752299C60.6848 0.597569 60.8305 0.5 60.9902 0.5H64.9323C65.095 0.5 65.2407 0.600909 65.3053 0.755666L71.9681 17.0437C72.0802 17.3196 71.8835 17.6223 71.5951 17.6223H68.7997C68.6367 17.6223 68.4909 17.5182 68.4264 17.3633M60.6542 10.8306H65.2475C65.4819 10.8306 65.6412 10.5817 65.5495 10.3597L63.2462 4.74866C63.1341 4.47282 62.7507 4.47282 62.6389 4.74866L60.3489 10.3597C60.2572 10.5817 60.4168 10.8306 60.6508 10.8306H60.6542Z" fill="#FF5310"/>
<path d="M14.2514 0.755666L9.3154 12.8491C9.20345 13.125 8.8201 13.125 8.70815 12.8491L3.77206 0.755666C3.70759 0.600909 3.56171 0.5 3.40227 0.5H0.403283C0.114939 0.5 -0.0818279 0.802753 0.033521 1.07859L6.6862 17.3768C6.75067 17.5317 6.89655 17.6324 7.05599 17.6324H10.9709C11.1339 17.6324 11.2797 17.5317 11.3408 17.3768L17.9934 1.07859C18.1055 0.80612 17.9085 0.5 17.6202 0.5H14.6213C14.4586 0.5 14.3125 0.600909 14.2514 0.755666Z" fill="#FF5310"/>
<path d="M51.7643 27.0556H49.9379V25.5092H48.7802V29.7077H49.9379V28.0257H51.7643V29.7077H52.9198V25.5092H51.7643V27.0556Z" fill="#FF5310"/>
<path d="M54.5861 27.1163C54.6832 26.5495 54.9993 26.2534 55.5115 26.2534C56.0297 26.2534 56.3818 26.6025 56.3987 27.1163H54.5861ZM55.5181 25.3987C54.244 25.3987 53.3896 26.2705 53.3896 27.5788C53.3896 28.9394 54.2341 29.804 55.5546 29.804C56.6096 29.804 57.3326 29.3242 57.604 28.4158H56.3546C56.2411 28.7475 55.9768 28.9139 55.5795 28.9139C54.9823 28.9139 54.6232 28.5631 54.5932 27.9531H57.604C57.604 27.8058 57.6128 27.7539 57.6128 27.6837C57.6128 26.2708 56.804 25.3987 55.5181 25.3987Z" fill="#FF5310"/>
<path d="M59.5813 25.4729C59.1718 25.5535 58.1207 25.8669 58.1207 27.4566V29.7071H59.292V27.8483C59.292 27.16 59.3885 26.837 59.6778 26.6282C59.8549 26.4879 60.111 26.4102 60.4085 26.4102C60.5316 26.4102 60.5845 26.4192 60.7257 26.4447V25.4917C60.7257 25.4917 60.2585 25.3416 59.5813 25.4729Z" fill="#FF5310"/>
<path d="M63.0413 28.9301C62.4244 28.9301 62.0644 28.4337 62.0644 27.6048C62.0644 26.7672 62.4171 26.2786 63.0413 26.2786C63.6566 26.2786 64.0092 26.7585 64.0092 27.5961C64.0092 28.4427 63.6566 28.9301 63.0413 28.9301ZM63.0413 25.3981C61.7285 25.3986 60.8838 26.2615 60.8838 27.6048C60.8838 28.9388 61.7285 29.8034 63.0413 29.8034C64.342 29.8034 65.1879 28.9388 65.1879 27.6048C65.1879 26.2615 64.342 25.3981 63.0413 25.3981Z" fill="#FF5310"/>
<path d="M45.6492 25.0263L43.8618 23.7167V27.4471L45.6492 26.2183V25.0263Z" fill="#FF5310"/>
<path d="M45.6492 30.3604V27.7979L43.8618 29.0724L45.6492 30.3604Z" fill="#FF5310"/>
<path d="M40.7397 30.2115L42.5277 31.5V26.1653L40.7397 24.8557V30.2115Z" fill="#FF5310"/>
<path d="M45.6492 25.0263L43.8618 23.7167V27.4471L45.6492 26.2183V25.0263Z" fill="#FF5310"/>
<path d="M45.6492 30.3604V27.7979L43.8618 29.0724L45.6492 30.3604Z" fill="#FF5310"/>
<path d="M40.7397 30.2115L42.5277 31.5V26.1653L40.7397 24.8557V30.2115Z" fill="#FF5310"/>
<path opacity="0.9" d="M35.3229 30.787C35.2058 30.787 35.0787 30.773 34.9412 30.7449V30.2642C35.0462 30.2763 35.1311 30.2822 35.1959 30.2822C35.2887 30.2822 35.3736 30.2642 35.4503 30.2283C35.5312 30.1921 35.6059 30.1301 35.6744 30.042C35.7432 29.9539 35.7958 29.8335 35.832 29.6814L34.5837 26.6469H35.2321L36.1351 28.9902H36.1473L36.9957 26.6469H37.6197L36.3958 29.7835C36.2987 30.0358 36.1977 30.2342 36.0927 30.3784C35.9916 30.5227 35.8784 30.6268 35.7534 30.6907C35.628 30.755 35.4845 30.787 35.3229 30.787Z" fill="#FF5310"/>
<path opacity="0.9" d="M33.1074 29.7953C32.885 29.7953 32.6931 29.7535 32.5315 29.6693C32.3739 29.5851 32.2488 29.4728 32.156 29.3328H31.9984V27.0071H32.156C32.2528 26.8791 32.3801 26.7728 32.5377 26.6889C32.6993 26.6005 32.8892 26.5564 33.1074 26.5564C33.3697 26.5564 33.6063 26.6227 33.8163 26.7548C34.0263 26.8831 34.1921 27.0714 34.3133 27.3197C34.4344 27.5641 34.4949 27.8506 34.4949 28.1789C34.4949 28.5075 34.4344 28.794 34.3133 29.0382C34.1921 29.2826 34.0263 29.4709 33.8163 29.6031C33.6063 29.7313 33.3697 29.7953 33.1074 29.7953ZM31.5498 25.4149H32.1438V29.7114H31.5498V25.4149ZM33.0103 29.3087C33.1963 29.3087 33.3536 29.2587 33.4829 29.1586C33.6162 29.0542 33.7133 28.9161 33.7739 28.7438C33.8384 28.5715 33.8709 28.3832 33.8709 28.1789C33.8709 27.9707 33.8384 27.7805 33.7739 27.6082C33.7133 27.4359 33.6162 27.2998 33.4829 27.1996C33.3536 27.0994 33.1963 27.0492 33.0103 27.0492C32.8326 27.0492 32.679 27.0955 32.5496 27.1875C32.4206 27.2757 32.3215 27.4059 32.2528 27.5782C32.184 27.7462 32.1498 27.9466 32.1498 28.1789C32.1498 28.4074 32.184 28.6077 32.2528 28.78C32.3215 28.9481 32.4206 29.0783 32.5496 29.1703C32.679 29.2627 32.8326 29.3087 33.0103 29.3087Z" fill="#FF5310"/>
<path opacity="0.9" d="M28.0576 29.7953C27.795 29.7953 27.5587 29.7313 27.3484 29.6031C27.1384 29.4709 26.9729 29.2826 26.8515 29.0382C26.7304 28.794 26.6698 28.5075 26.6698 28.1789C26.6698 27.8506 26.7304 27.5641 26.8515 27.3197C26.9729 27.0714 27.1384 26.8831 27.3484 26.7548C27.5587 26.6227 27.795 26.5564 28.0576 26.5564C28.2798 26.5564 28.4697 26.6005 28.6273 26.6889C28.7846 26.7728 28.912 26.8831 29.009 27.0192H29.1667V29.3508H29.009C28.912 29.479 28.7826 29.5851 28.6211 29.6693C28.4637 29.7535 28.2758 29.7953 28.0576 29.7953ZM28.1544 29.3087C28.3324 29.3087 28.4858 29.2627 28.6151 29.1703C28.7444 29.0783 28.8432 28.9481 28.912 28.78C28.9807 28.6077 29.015 28.4074 29.015 28.1789C29.015 27.9466 28.9807 27.7462 28.912 27.5782C28.8432 27.4059 28.7444 27.2757 28.6151 27.1875C28.4858 27.0955 28.3324 27.0492 28.1544 27.0492C27.9687 27.0492 27.8091 27.0994 27.6759 27.1996C27.5465 27.2998 27.4495 27.4359 27.3849 27.6082C27.3201 27.7805 27.2879 27.9707 27.2879 28.1789C27.2879 28.3832 27.3201 28.5715 27.3849 28.7438C27.4495 28.9161 27.5465 29.0542 27.6759 29.1586C27.8091 29.2587 27.9687 29.3087 28.1544 29.3087ZM29.0212 25.4149H29.6149V29.7114H29.0212V25.4149Z" fill="#FF5310"/>
<path opacity="0.9" d="M24.8528 29.8016C24.5336 29.8016 24.2588 29.7334 24.0288 29.5973C23.7984 29.457 23.6227 29.2628 23.5015 29.0144C23.3844 28.7661 23.3258 28.4855 23.3258 28.1732C23.3258 27.8527 23.3864 27.5701 23.5075 27.326C23.6329 27.0816 23.8106 26.8913 24.0407 26.7549C24.271 26.6188 24.5418 26.5507 24.8528 26.5507C25.1599 26.5507 25.4225 26.6149 25.6407 26.7429C25.8629 26.8711 26.0304 27.0535 26.1436 27.2898C26.2607 27.5221 26.3193 27.7966 26.3193 28.1131C26.3193 28.2251 26.3173 28.2994 26.3134 28.3354H23.6227V27.8726H25.7013C25.7013 27.7124 25.6648 27.5682 25.592 27.4399C25.5235 27.312 25.4225 27.2118 25.2892 27.1397C25.1599 27.0675 25.0085 27.0313 24.8347 27.0313C24.6649 27.0313 24.5116 27.0695 24.374 27.1456C24.2368 27.2216 24.1298 27.3299 24.0528 27.4699C23.9761 27.6063 23.9376 27.7646 23.9376 27.9447C23.9376 28.0648 23.9376 28.1852 23.9376 28.3053C23.9376 28.4855 23.9722 28.6538 24.0407 28.8101C24.1134 28.9622 24.2187 29.0865 24.3559 29.1825C24.4932 29.2748 24.663 29.3209 24.865 29.3209C25.0306 29.3209 25.1701 29.2908 25.283 29.2308C25.4002 29.1707 25.489 29.1006 25.5496 29.0203C25.6104 28.9361 25.6529 28.8522 25.6769 28.7681H26.2831C26.1942 29.0804 26.0304 29.331 25.7921 29.5193C25.5538 29.7075 25.2406 29.8016 24.8528 29.8016Z" fill="#FF5310"/>
<path opacity="0.9" d="M21.6763 27.2297H22.1127C22.1976 27.0212 22.3069 26.8609 22.4402 26.749C22.5774 26.6328 22.7449 26.5747 22.943 26.5747C23.048 26.5747 23.1431 26.5806 23.2277 26.5927V27.1575C23.155 27.1455 23.0885 27.1396 23.0279 27.1396C22.8502 27.1396 22.6906 27.1814 22.5491 27.2656C22.4076 27.3498 22.2967 27.4659 22.2157 27.6141C22.139 27.7623 22.1006 27.9326 22.1006 28.1248L21.6763 27.2297ZM21.5068 26.6468H22.1006V29.7114H21.5068V26.6468Z" fill="#FF5310"/>
<path opacity="0.9" d="M19.5323 29.8016C19.2131 29.8016 18.9386 29.7334 18.7082 29.5973C18.4778 29.457 18.3021 29.2628 18.181 29.0144C18.0638 28.7661 18.0052 28.4855 18.0052 28.1732C18.0052 27.8527 18.0658 27.5701 18.1869 27.326C18.3123 27.0816 18.49 26.8913 18.7204 26.7549C18.9505 26.6188 19.2213 26.5507 19.5323 26.5507C19.8393 26.5507 20.102 26.6149 20.3201 26.7429C20.5423 26.8711 20.7101 27.0535 20.823 27.2898C20.9402 27.5221 20.9988 27.7966 20.9988 28.1131C20.9988 28.2251 20.9968 28.2994 20.9928 28.3354H18.3021V27.8726H20.3807C20.3807 27.7124 20.3445 27.5682 20.2718 27.4399C20.203 27.312 20.102 27.2118 19.9687 27.1397C19.8393 27.0675 19.6879 27.0313 19.5142 27.0313C19.3444 27.0313 19.191 27.0695 19.0535 27.1456C18.9162 27.2216 18.8092 27.3299 18.7323 27.4699C18.6556 27.6063 18.6174 27.7646 18.6174 27.9447C18.6174 28.0648 18.6174 28.1852 18.6174 28.3053C18.6174 28.4855 18.6516 28.6538 18.7204 28.8101C18.7931 28.9622 18.8981 29.0865 19.0354 29.1825C19.1729 29.2748 19.3424 29.3209 19.5445 29.3209C19.71 29.3209 19.8495 29.2908 19.9627 29.2308C20.0799 29.1707 20.1687 29.1006 20.2293 29.0203C20.2899 28.9361 20.3323 28.8522 20.3564 28.7681H20.9625C20.8737 29.0804 20.7101 29.331 20.4716 29.5193C20.2333 29.7075 19.9203 29.8016 19.5323 29.8016Z" fill="#FF5310"/>
<path opacity="0.9" d="M13.3685 26.6469H14.0109L14.6655 29.0203H14.6774L15.3198 26.6469H15.9197L16.5621 29.0203H16.5743L17.2348 26.6469H17.8529L16.8955 29.7114H16.2834L15.6169 27.3498H15.6048L14.938 29.7114H14.3259L13.3685 26.6469Z" fill="#FF5310"/>
<path opacity="0.9" d="M11.6733 29.8016C11.3584 29.8016 11.0836 29.7334 10.8492 29.5973C10.6189 29.4612 10.4412 29.2706 10.3161 29.0265C10.1907 28.7782 10.1282 28.4956 10.1282 28.1791C10.1282 27.8628 10.1907 27.5802 10.3161 27.3319C10.4412 27.0835 10.6189 26.8913 10.8492 26.7549C11.0836 26.6188 11.3603 26.5507 11.6796 26.5507C11.9945 26.5507 12.2673 26.6188 12.4977 26.7549C12.7278 26.8913 12.9058 27.0835 13.0309 27.3319C13.1562 27.5763 13.2188 27.8566 13.2188 28.1732C13.2188 28.4936 13.1562 28.7782 13.0309 29.0265C12.9058 29.2706 12.7258 29.4612 12.4915 29.5973C12.2614 29.7334 11.9886 29.8016 11.6733 29.8016ZM11.6796 29.315C11.8816 29.315 12.0511 29.2667 12.1887 29.1707C12.3299 29.0706 12.4329 28.9342 12.4977 28.7619C12.5662 28.5899 12.6007 28.3934 12.6007 28.1732C12.6007 27.8406 12.5217 27.5701 12.3644 27.3619C12.2068 27.1495 11.9784 27.0434 11.6796 27.0434C11.4735 27.0434 11.2998 27.0914 11.1583 27.1876C11.021 27.2839 10.918 27.418 10.8492 27.5903C10.7805 27.7626 10.7462 27.9588 10.7462 28.1791C10.7462 28.5155 10.8249 28.7899 10.9825 29.0024C11.1402 29.2106 11.3725 29.315 11.6796 29.315Z" fill="#FF5310"/>
<path opacity="0.9" d="M6.76147 25.4149H8.56735C8.99963 25.4149 9.34304 25.521 9.59757 25.7334C9.85611 25.9416 9.98541 26.2621 9.98541 26.6948C9.98541 26.9833 9.9248 27.2235 9.80359 27.416C9.68643 27.6043 9.52079 27.7443 9.30668 27.8366C9.09661 27.9247 8.85015 27.9688 8.56735 27.9688H7.42807V29.7114H6.76147V25.4149ZM8.53704 27.3977C8.70673 27.3977 8.84613 27.3739 8.9552 27.3256C9.06831 27.2737 9.15315 27.1954 9.20972 27.0913C9.26627 26.9872 9.29457 26.855 9.29457 26.6948C9.29457 26.4543 9.23194 26.2761 9.10671 26.1599C8.98146 26.0438 8.79157 25.9857 8.53704 25.9857H7.42807V27.3977H8.53704Z" fill="#FF5310"/>
</svg>
