<svg width="21" height="20" viewBox="0 0 21 20" fill="none" xmlns="http://www.w3.org/2000/svg">
<mask id="path-1-inside-1_8863_2341" fill="white">
<path d="M7.42025 17.4048L9.44912 12.2294C9.53759 12.0053 9.42553 11.7517 9.20141 11.6662L4.79274 9.93512C4.49195 9.81717 4.41823 9.42201 4.66004 9.20673L12.5308 2.11453C12.8728 1.80784 13.3948 2.16761 13.2267 2.59816L11.1978 7.77355C11.1094 7.99767 11.2214 8.25128 11.4456 8.3368L15.8572 10.0649C16.158 10.1828 16.2287 10.578 15.9899 10.7933L8.11915 17.8855C7.77707 18.1922 7.25511 17.8324 7.4232 17.4018"/>
</mask>
<path d="M9.44912 12.2294L8.7515 11.954L8.75086 11.9557L9.44912 12.2294ZM9.20141 11.6662L8.92729 12.3643L8.93403 12.3669L9.20141 11.6662ZM4.79274 9.93512L5.06685 9.23701L5.06656 9.23689L4.79274 9.93512ZM4.66004 9.20673L5.15874 9.76692L5.1621 9.7639L4.66004 9.20673ZM12.5308 2.11453L12.0301 1.5561L12.0287 1.55736L12.5308 2.11453ZM13.2267 2.59816L13.925 2.87189L13.9254 2.87091L13.2267 2.59816ZM11.1978 7.77355L11.8955 8.04892L11.8961 8.04728L11.1978 7.77355ZM11.4456 8.3368L11.7191 7.63843L11.7129 7.63608L11.4456 8.3368ZM15.8572 10.0649L16.131 9.36665L16.1307 9.36654L15.8572 10.0649ZM15.9899 10.7933L16.4919 11.3504L16.492 11.3504L15.9899 10.7933ZM8.11915 17.8855L8.61981 18.4439L8.62121 18.4426L8.11915 17.8855ZM8.11851 17.6785L10.1474 12.5031L8.75086 11.9557L6.72199 17.1311L8.11851 17.6785ZM10.1467 12.5048C10.3884 11.8926 10.0834 11.2 9.46879 10.9654L8.93403 12.3669C8.76764 12.3034 8.6868 12.1179 8.7515 11.954L10.1467 12.5048ZM9.47552 10.968L5.06685 9.23701L4.51863 10.6332L8.9273 12.3643L9.47552 10.968ZM5.06656 9.23689C5.27799 9.31981 5.34176 9.60398 5.15874 9.76691L4.16134 8.64655C3.49469 9.24004 3.70591 10.3145 4.51893 10.6334L5.06656 9.23689ZM5.1621 9.7639L13.0328 2.6717L12.0287 1.55736L4.15798 8.64957L5.1621 9.7639ZM13.0314 2.67296C12.7867 2.89238 12.4083 2.63208 12.5281 2.3254L13.9254 2.87091C14.3813 1.70314 12.959 0.723295 12.0301 1.5561L13.0314 2.67296ZM12.5285 2.32442L10.4996 7.49981L11.8961 8.04728L13.925 2.87189L12.5285 2.32442ZM10.5002 7.49817C10.2586 8.11032 10.5635 8.80299 11.1782 9.03752L11.7129 7.63608C11.8793 7.69957 11.9602 7.88502 11.8955 8.04892L10.5002 7.49817ZM11.172 9.03513L15.5836 10.7632L16.1307 9.36654L11.7191 7.63846L11.172 9.03513ZM15.5834 10.7631C15.3638 10.677 15.3135 10.3932 15.4878 10.2361L16.492 11.3504C17.144 10.7628 16.9521 9.68865 16.131 9.36665L15.5834 10.7631ZM15.4878 10.2361L7.61709 17.3283L8.62121 18.4426L16.4919 11.3504L15.4878 10.2361ZM7.61849 17.327C7.86323 17.1076 8.24157 17.3679 8.12184 17.6746L6.72455 17.1291C6.26864 18.2969 7.69091 19.2767 8.61981 18.4439L7.61849 17.327Z" fill="#222222" mask="url(#path-1-inside-1_8863_2341)"/>
</svg>
