<svg width="18" height="18" viewBox="0 0 18 18" fill="none" xmlns="http://www.w3.org/2000/svg">
<g id="solar:add-circle-bold_2">
<path id="Vector" d="M5.60932 9.55636C4.70192 9.55636 3.79452 9.55814 2.88771 9.55577C2.43194 9.55458 2.1934 9.3119 2.24016 8.91058C2.26857 8.66553 2.40945 8.51755 2.64266 8.4631C2.74684 8.43883 2.85752 8.43646 2.96584 8.43646C4.77058 8.43646 6.57532 8.43409 8.38006 8.44653C8.62334 8.4483 8.67187 8.37254 8.6701 8.14228C8.66063 6.33754 8.66359 4.53281 8.66773 2.72807C8.66891 2.2137 8.87016 1.98108 9.2697 2.0012C9.52837 2.01422 9.69825 2.14859 9.75803 2.39423C9.79473 2.54517 9.80006 2.70617 9.80006 2.86243C9.80302 4.61804 9.80657 6.37306 9.7971 8.12867C9.79591 8.3755 9.86635 8.44593 10.1132 8.44475C11.9179 8.4341 13.7227 8.43765 15.5274 8.43587C16.0057 8.43587 16.2483 8.64008 16.2294 9.03015C16.217 9.28704 16.0808 9.45633 15.8387 9.52499C15.718 9.55932 15.586 9.56405 15.4587 9.56405C13.7132 9.56405 11.9676 9.5605 10.2221 9.55873C9.7965 9.55873 9.79769 9.55991 9.79828 9.99556C9.80006 11.7512 9.80242 13.5062 9.80242 15.2618C9.80242 15.7448 9.57276 16.0212 9.19749 15.9987C8.88378 15.9804 8.68194 15.7643 8.66891 15.4021C8.65648 15.0576 8.66714 14.7119 8.66773 14.3668C8.66951 12.858 8.66773 11.3493 8.6772 9.84048C8.67898 9.6191 8.61031 9.55044 8.39131 9.55281C7.46437 9.56228 6.53744 9.55695 5.61051 9.55695L5.60932 9.55636Z" fill="#222222"/>
</g>
</svg>
