<svg width="27" height="28" viewBox="0 0 27 28" fill="none" xmlns="http://www.w3.org/2000/svg">
<path d="M8.41398 14.8345C7.05288 14.8345 5.69178 14.8372 4.33157 14.8337C3.64791 14.8319 3.2901 14.4678 3.36024 13.8659C3.40286 13.4983 3.61417 13.2763 3.96399 13.1946C4.12026 13.1582 4.28629 13.1547 4.44877 13.1547C7.15587 13.1547 9.86298 13.1511 12.5701 13.1698C12.935 13.1725 13.0078 13.0588 13.0051 12.7134C12.9909 10.0063 12.9954 7.29921 13.0016 4.5921C13.0034 3.82054 13.3052 3.47161 13.9046 3.5018C14.2926 3.52133 14.5474 3.72288 14.637 4.09134C14.6921 4.31775 14.7001 4.55925 14.7001 4.79365C14.7045 7.42706 14.7099 10.0596 14.6956 12.693C14.6939 13.0632 14.7995 13.1689 15.1698 13.1671C17.8769 13.1511 20.584 13.1565 23.2911 13.1538C24.0085 13.1538 24.3725 13.4601 24.3441 14.0452C24.3255 14.4306 24.1212 14.6845 23.7581 14.7875C23.577 14.839 23.379 14.8461 23.1881 14.8461C20.5698 14.8461 17.9515 14.8408 15.3331 14.8381C14.6948 14.8381 14.6965 14.8399 14.6974 15.4933C14.7001 18.1268 14.7036 20.7593 14.7036 23.3927C14.7036 24.1172 14.3591 24.5318 13.7962 24.4981C13.3257 24.4706 13.0229 24.1465 13.0034 23.6031C12.9847 23.0864 13.0007 22.5679 13.0016 22.0502C13.0043 19.7871 13.0016 17.5239 13.0158 15.2607C13.0185 14.9287 12.9155 14.8257 12.587 14.8292C11.1966 14.8434 9.80616 14.8354 8.41576 14.8354L8.41398 14.8345Z" fill="white"/>
</svg>
