<svg width="1440" height="1174" viewBox="0 0 1440 1174" fill="none" xmlns="http://www.w3.org/2000/svg">
<path d="M1149.23 1490.87L880.219 1075.26C878.53 1072.65 876.117 1070.59 873.275 1069.32L752.515 1015.75C750.716 1014.95 749.08 1013.83 747.689 1012.44L292.239 556.989C290.825 555.574 289.688 553.906 288.888 552.073L236.993 433.114C235.734 430.228 233.653 427.778 231.008 426.071L-182.876 158.763" stroke="#222222" stroke-opacity="0.08" stroke-width="2"/>
<path d="M1585.88 1054.24L1315.92 639.488C1314.24 636.914 1311.86 634.876 1309.06 633.619L1188.64 579.591C1186.87 578.795 1185.25 577.682 1183.88 576.307L728.378 120.808C726.98 119.409 725.853 117.763 725.054 115.954L672.707 -2.66083C671.451 -5.50663 669.393 -7.92464 666.784 -9.61897L253.769 -277.874" stroke="#222222" stroke-opacity="0.08" stroke-width="2"/>
<path d="M1876.36 763.764L1606.39 349.016C1604.72 346.441 1602.34 344.404 1599.53 343.146L1479.12 289.119C1477.34 288.322 1475.73 287.209 1474.35 285.834L1018.86 -169.665C1017.46 -171.064 1016.33 -172.709 1015.53 -174.519L963.184 -293.133C961.928 -295.979 959.87 -298.397 957.261 -300.092L544.245 -568.347" stroke="#222222" stroke-opacity="0.08" stroke-width="2"/>
<path d="M859.688 1780.42L589.725 1365.68C588.049 1363.1 585.668 1361.06 582.865 1359.81L462.45 1305.78C460.676 1304.98 459.062 1303.87 457.686 1302.49L2.18708 846.995C0.788542 845.597 -0.3386 843.951 -1.13715 842.141L-53.4842 723.527C-54.7401 720.681 -56.7983 718.263 -59.407 716.569L-472.423 448.314" stroke="#222222" stroke-opacity="0.08" stroke-width="2"/>
<path d="M1367.55 1272.56L1097.59 857.809C1095.92 855.234 1093.54 853.197 1090.73 851.939L970.318 797.911C968.543 797.115 966.929 796.002 965.554 794.627L510.054 339.128C508.656 337.729 507.529 336.084 506.73 334.274L454.383 215.659C453.127 212.814 451.069 210.396 448.46 208.701L35.4445 -59.5536" stroke="#222222" stroke-opacity="0.08" stroke-width="2"/>
<path d="M1258.39 1381.72L989.375 966.1C987.686 963.49 985.273 961.429 982.432 960.168L861.671 906.594C859.873 905.796 858.237 904.673 856.846 903.282L401.396 447.832C399.981 446.418 398.844 444.75 398.044 442.916L346.149 323.957C344.891 321.072 342.809 318.622 340.165 316.914L-73.7196 49.6066" stroke="#222222" stroke-opacity="0.08" stroke-width="2"/>
<path d="M1694.11 946.006L1425.1 530.389C1423.41 527.779 1421 525.718 1418.15 524.457L1297.39 470.883C1295.6 470.085 1293.96 468.962 1292.57 467.571L837.118 12.1214C835.704 10.7067 834.567 9.03917 833.767 7.20533L781.872 -111.754C780.613 -114.639 778.531 -117.089 775.887 -118.797L362.003 -386.104" stroke="#222222" stroke-opacity="0.08" stroke-width="2"/>
<path d="M1984.58 655.529L1715.57 239.912C1713.88 237.303 1711.46 235.241 1708.62 233.981L1587.86 180.406C1586.06 179.609 1584.43 178.486 1583.04 177.095L1127.59 -278.355C1126.17 -279.77 1125.04 -281.437 1124.24 -283.271L1072.34 -402.23C1071.08 -405.115 1069 -407.565 1066.36 -409.273L652.472 -676.581" stroke="#222222" stroke-opacity="0.08" stroke-width="2"/>
<path d="M967.926 1672.19L698.91 1256.57C697.221 1253.96 694.808 1251.9 691.967 1250.64L571.206 1197.07C569.408 1196.27 567.772 1195.15 566.381 1193.75L110.931 738.305C109.516 736.89 108.379 735.223 107.579 733.389L55.6844 614.43C54.4257 611.545 52.3439 609.095 49.6997 607.387L-364.184 340.079" stroke="#222222" stroke-opacity="0.08" stroke-width="2"/>
<path d="M1041 1599.11L771.041 1184.36C769.366 1181.78 766.984 1179.75 764.182 1178.49L643.767 1124.46C641.992 1123.67 640.378 1122.55 639.003 1121.18L183.503 665.679C182.105 664.28 180.978 662.634 180.179 660.825L127.832 542.21C126.576 539.364 124.518 536.946 121.909 535.252L-291.106 266.997" stroke="#222222" stroke-opacity="0.08" stroke-width="2"/>
<path d="M1476.71 1163.4L1206.75 748.648C1205.08 746.074 1202.7 744.036 1199.89 742.779L1079.48 688.751C1077.7 687.955 1076.09 686.842 1074.71 685.467L619.214 229.968C617.816 228.569 616.689 226.923 615.89 225.114L563.543 106.499C562.287 103.654 560.229 101.236 557.62 99.5412L144.605 -168.714" stroke="#222222" stroke-opacity="0.08" stroke-width="2"/>
<path d="M1767.2 872.924L1497.24 458.176C1495.56 455.601 1493.18 453.564 1490.38 452.306L1369.96 398.279C1368.19 397.483 1366.57 396.37 1365.2 394.994L909.699 -60.505C908.3 -61.9035 907.173 -63.5492 906.375 -65.3587L854.028 -183.973C852.772 -186.819 850.713 -189.237 848.105 -190.931L435.089 -459.186" stroke="#222222" stroke-opacity="0.08" stroke-width="2"/>
<path d="M750.516 1889.58L480.553 1474.84C478.877 1472.26 476.496 1470.22 473.693 1468.97L353.279 1414.94C351.504 1414.14 349.89 1413.03 348.515 1411.65L-106.985 956.155C-108.383 954.757 -109.51 953.111 -110.309 951.301L-162.656 832.687C-163.912 829.841 -165.97 827.423 -168.579 825.729L-581.595 557.474" stroke="#222222" stroke-opacity="0.08" stroke-width="2"/>
<path d="M1186.23 1453.87L916.264 1039.13C914.588 1036.55 912.207 1034.51 909.404 1033.26L788.989 979.228C787.215 978.432 785.601 977.319 784.226 975.944L328.726 520.444C327.328 519.046 326.2 517.4 325.402 515.591L273.055 396.976C271.799 394.13 269.741 391.712 267.132 390.018L-145.884 121.763" stroke="#222222" stroke-opacity="0.08" stroke-width="2"/>
<path d="M1621.96 1018.16L1351.99 603.41C1350.32 600.836 1347.94 598.798 1345.13 597.541L1224.72 543.513C1222.95 542.717 1221.33 541.604 1219.96 540.229L764.457 84.7294C763.058 83.3309 761.931 81.6851 761.132 79.8757L708.785 -38.739C707.529 -41.5848 705.471 -44.0028 702.863 -45.6971L289.847 -313.952" stroke="#222222" stroke-opacity="0.08" stroke-width="2"/>
<path d="M1912.43 727.686L1642.47 312.938C1640.8 310.363 1638.41 308.325 1635.61 307.068L1515.2 253.04C1513.42 252.244 1511.81 251.131 1510.43 249.756L1054.93 -205.743C1053.53 -207.142 1052.41 -208.788 1051.61 -210.597L999.262 -329.212C998.006 -332.057 995.948 -334.475 993.339 -336.17L580.323 -604.425" stroke="#222222" stroke-opacity="0.08" stroke-width="2"/>
<path d="M895.77 1744.35L625.807 1329.6C624.131 1327.02 621.75 1324.99 618.947 1323.73L498.532 1269.7C496.758 1268.9 495.144 1267.79 493.769 1266.42L38.2691 810.917C36.8706 809.518 35.7434 807.873 34.9449 806.063L-17.4022 687.449C-18.6581 684.603 -20.7163 682.185 -23.325 680.49L-436.341 412.236" stroke="#222222" stroke-opacity="0.08" stroke-width="2"/>
<path d="M1403.62 1236.48L1134.61 820.861C1132.92 818.252 1130.51 816.191 1127.67 814.93L1006.91 761.356C1005.11 760.558 1003.47 759.435 1002.08 758.044L546.63 302.594C545.215 301.179 544.078 299.512 543.278 297.678L491.384 178.719C490.125 175.834 488.043 173.384 485.399 171.676L71.5148 -95.6317" stroke="#222222" stroke-opacity="0.08" stroke-width="2"/>
<path d="M1294.47 1345.64L1025.45 930.022C1023.76 927.412 1021.35 925.351 1018.51 924.09L897.749 870.516C895.951 869.718 894.315 868.595 892.924 867.204L437.474 411.754C436.059 410.339 434.922 408.672 434.122 406.838L382.227 287.879C380.969 284.994 378.887 282.544 376.243 280.836L-37.6414 13.5285" stroke="#222222" stroke-opacity="0.08" stroke-width="2"/>
<path d="M1077.07 1563.03L807.112 1148.28C805.436 1145.71 803.055 1143.67 800.252 1142.41L679.837 1088.38C678.063 1087.59 676.448 1086.48 675.073 1085.1L219.574 629.601C218.175 628.202 217.048 626.556 216.25 624.747L163.903 506.132C162.647 503.286 160.588 500.868 157.98 499.174L-255.036 230.919" stroke="#222222" stroke-opacity="0.08" stroke-width="2"/>
<path d="M1512.79 1127.32L1242.83 712.57C1241.15 709.996 1238.77 707.958 1235.97 706.701L1115.56 652.673C1113.78 651.877 1112.17 650.764 1110.79 649.389L655.293 193.89C653.894 192.491 652.767 190.845 651.968 189.036L599.621 70.4212C598.365 67.5754 596.307 65.1574 593.698 63.4631L180.683 -204.792" stroke="#222222" stroke-opacity="0.08" stroke-width="2"/>
<path d="M1803.27 836.846L1533.31 422.098C1531.63 419.523 1529.25 417.486 1526.45 416.228L1406.03 362.201C1404.26 361.404 1402.64 360.291 1401.27 358.916L945.769 -96.5831C944.371 -97.9816 943.243 -99.6274 942.445 -101.437L890.098 -220.051C888.842 -222.897 886.784 -225.315 884.175 -227.01L471.159 -495.264" stroke="#222222" stroke-opacity="0.08" stroke-width="2"/>
<path d="M786.594 1853.51L516.631 1438.76C514.955 1436.18 512.574 1434.15 509.771 1432.89L389.357 1378.86C387.582 1378.06 385.968 1376.95 384.593 1375.58L-70.9067 920.077C-72.3052 918.679 -73.4323 917.033 -74.2309 915.223L-126.578 796.609C-127.834 793.763 -129.892 791.345 -132.501 789.651L-545.516 521.396" stroke="#222222" stroke-opacity="0.08" stroke-width="2"/>
<path d="M1222.32 1417.79L952.354 1003.05C950.678 1000.47 948.297 998.435 945.494 997.177L825.079 943.15C823.305 942.354 821.691 941.241 820.315 939.866L364.816 484.366C363.417 482.968 362.29 481.322 361.492 479.512L309.145 360.898C307.889 358.052 305.831 355.634 303.222 353.94L-109.794 85.6847" stroke="#222222" stroke-opacity="0.08" stroke-width="2"/>
<path d="M1658.03 982.08L1389.01 566.463C1387.32 563.853 1384.91 561.792 1382.07 560.532L1261.31 506.957C1259.51 506.159 1257.87 505.037 1256.48 503.646L801.032 48.1956C799.618 46.7809 798.481 45.1134 797.681 43.2795L745.786 -75.6794C744.527 -78.5646 742.446 -81.0145 739.801 -82.7223L325.917 -350.03" stroke="#222222" stroke-opacity="0.08" stroke-width="2"/>
<path d="M1948.5 691.607L1679.49 275.99C1677.8 273.381 1675.39 271.32 1672.54 270.059L1551.78 216.485C1549.99 215.687 1548.35 214.564 1546.96 213.173L1091.51 -242.277C1090.09 -243.692 1088.96 -245.359 1088.16 -247.193L1036.26 -366.152C1035 -369.037 1032.92 -371.487 1030.28 -373.195L616.394 -640.503" stroke="#222222" stroke-opacity="0.08" stroke-width="2"/>
<path d="M931.848 1708.27L662.832 1292.65C661.143 1290.04 658.73 1287.98 655.889 1286.72L535.128 1233.14C533.33 1232.35 531.694 1231.22 530.303 1229.83L74.8527 774.383C73.438 772.968 72.3011 771.301 71.5011 769.467L19.6062 650.508C18.3476 647.623 16.2658 645.173 13.6215 643.465L-400.263 376.157" stroke="#222222" stroke-opacity="0.08" stroke-width="2"/>
<path d="M1004 1636.11L734.988 1220.49C733.299 1217.88 730.886 1215.82 728.045 1214.56L607.284 1160.99C605.486 1160.19 603.85 1159.07 602.459 1157.68L147.009 702.227C145.594 700.812 144.457 699.145 143.657 697.311L91.7625 578.352C90.5038 575.467 88.4221 573.017 85.7778 571.309L-328.106 304.001" stroke="#222222" stroke-opacity="0.08" stroke-width="2"/>
<path d="M1439.71 1200.4L1170.7 784.783C1169.01 782.174 1166.6 780.113 1163.76 778.852L1043 725.278C1041.2 724.48 1039.56 723.357 1038.17 721.966L582.72 266.516C581.305 265.101 580.168 263.434 579.368 261.6L527.473 142.641C526.215 139.756 524.133 137.306 521.489 135.598L107.605 -131.71" stroke="#222222" stroke-opacity="0.08" stroke-width="2"/>
<path d="M1730.18 909.928L1461.16 494.311C1459.47 491.701 1457.06 489.64 1454.22 488.379L1333.46 434.805C1331.66 434.007 1330.03 432.884 1328.63 431.493L873.185 -23.9567C871.77 -25.3714 870.633 -27.039 869.833 -28.8728L817.938 -147.832C816.68 -150.717 814.598 -153.167 811.954 -154.875L398.069 -422.182" stroke="#222222" stroke-opacity="0.08" stroke-width="2"/>
<path d="M713.535 1926.58L444.52 1510.97C442.83 1508.36 440.418 1506.3 437.576 1505.04L316.815 1451.46C315.017 1450.66 313.381 1449.54 311.99 1448.15L-143.46 992.7C-144.875 991.285 -146.011 989.617 -146.811 987.783L-198.706 868.824C-199.965 865.939 -202.047 863.489 -204.691 861.782L-618.575 594.474" stroke="#222222" stroke-opacity="0.08" stroke-width="2"/>
<path d="M1331.48 1308.63L1061.52 893.887C1059.84 891.312 1057.46 889.275 1054.66 888.017L934.243 833.99C932.469 833.193 930.855 832.081 929.479 830.705L473.98 375.206C472.582 373.807 471.454 372.162 470.656 370.352L418.309 251.738C417.053 248.892 414.995 246.474 412.386 244.779L-0.629729 -23.4754" stroke="#222222" stroke-opacity="0.08" stroke-width="2"/>
<path d="M1113.15 1526.95L844.133 1111.33C842.444 1108.72 840.031 1106.66 837.189 1105.4L716.429 1051.83C714.63 1051.03 712.995 1049.91 711.603 1048.52L256.153 593.067C254.739 591.652 253.602 589.984 252.802 588.151L200.907 469.192C199.648 466.306 197.567 463.857 194.922 462.149L-218.962 194.841" stroke="#222222" stroke-opacity="0.08" stroke-width="2"/>
<path d="M1548.88 1091.24L1279.86 675.623C1278.17 673.013 1275.76 670.952 1272.92 669.692L1152.16 616.117C1150.36 615.32 1148.73 614.197 1147.33 612.806L691.884 157.356C690.469 155.941 689.332 154.274 688.532 152.44L636.637 33.4807C635.379 30.5955 633.297 28.1457 630.653 26.4378L216.769 -240.87" stroke="#222222" stroke-opacity="0.08" stroke-width="2"/>
<path d="M1839.34 800.768L1570.32 385.15C1568.64 382.541 1566.22 380.48 1563.38 379.219L1442.62 325.645C1440.82 324.847 1439.19 323.724 1437.79 322.333L982.345 -133.117C980.93 -134.532 979.793 -136.199 978.993 -138.033L927.098 -256.992C925.84 -259.877 923.758 -262.327 921.114 -264.035L507.23 -531.343" stroke="#222222" stroke-opacity="0.08" stroke-width="2"/>
<path d="M822.68 1817.43L553.664 1401.81C551.975 1399.2 549.562 1397.14 546.721 1395.88L425.96 1342.3C424.162 1341.51 422.526 1340.38 421.135 1338.99L-34.3153 883.543C-35.73 882.129 -36.8668 880.461 -37.6668 878.627L-89.5617 759.668C-90.8204 756.783 -92.9021 754.333 -95.5464 752.625L-509.431 485.318" stroke="#222222" stroke-opacity="0.08" stroke-width="2"/>
</svg>
