<svg xmlns="http://www.w3.org/2000/svg" width="16" height="16" viewBox="0 0 16 16" fill="none">
  <g clip-path="url(#clip0_3792_36438)">
    <path fill-rule="evenodd" clip-rule="evenodd" d="M11.0986 2.63777C9.30384 1.82377 7.14588 2.82311 6.93028 4.95311C6.82864 5.96557 6.77805 6.98269 6.77871 8.00044C6.77871 9.15377 6.84208 10.1798 6.92963 11.0471C7.14523 13.1778 9.30384 14.1771 11.0986 13.3631L11.2456 13.2964C12.2495 12.8411 13.1025 12.0984 13.7012 11.1583C14.2998 10.2183 14.6185 9.12121 14.6185 8.00011C14.6185 6.87901 14.2998 5.78196 13.7012 4.84191C13.1025 3.90186 12.2495 3.15915 11.2456 2.70377L11.0986 2.63711V2.63777ZM8.22976 5.09044C8.34083 3.99577 9.45999 3.35377 10.568 3.85577L10.715 3.92244C11.4881 4.27304 12.1449 4.8449 12.6059 5.56871C13.0668 6.29252 13.3122 7.13722 13.3122 8.00044C13.3122 8.86366 13.0668 9.70836 12.6059 10.4322C12.1449 11.156 11.4881 11.7278 10.715 12.0784L10.568 12.1451C9.45999 12.6471 8.34018 12.0051 8.22911 10.9104C8.13242 9.94359 8.08444 8.97231 8.08538 8.00044C8.08538 6.89644 8.14679 5.91644 8.22976 5.09044ZM5.71443 4.61911C5.79692 4.58876 5.87257 4.54178 5.93689 4.48097C6.0012 4.42016 6.05287 4.34676 6.0888 4.26515C6.12473 4.18353 6.14419 4.09538 6.14603 4.00592C6.14787 3.91647 6.13204 3.82756 6.09949 3.74448C6.06694 3.6614 6.01834 3.58586 5.95657 3.52235C5.89481 3.45885 5.82115 3.40867 5.73998 3.37483C5.65881 3.34098 5.5718 3.32416 5.48413 3.32535C5.39645 3.32654 5.30991 3.34573 5.22966 3.38177L1.96299 4.71511C1.88051 4.74545 1.80485 4.79243 1.74054 4.85324C1.67622 4.91405 1.62456 4.98745 1.58862 5.06907C1.55269 5.15068 1.53323 5.23884 1.53139 5.32829C1.52956 5.41774 1.54538 5.50666 1.57793 5.58974C1.61048 5.67281 1.65909 5.74836 1.72085 5.81186C1.78262 5.87537 1.85628 5.92554 1.93744 5.95939C2.01861 5.99323 2.10562 6.01006 2.1933 6.00887C2.28097 6.00767 2.36751 5.98848 2.44776 5.95244L5.71443 4.61911ZM6.07834 7.08577C6.11022 7.16706 6.12609 7.25396 6.12506 7.34151C6.12402 7.42906 6.1061 7.51554 6.0723 7.59602C6.03851 7.6765 5.98951 7.7494 5.92811 7.81055C5.86671 7.87171 5.7941 7.91992 5.71443 7.95244L2.44776 9.28578C2.36781 9.31987 2.282 9.3374 2.19534 9.33733C2.10868 9.33726 2.0229 9.3196 1.94299 9.28537C1.86308 9.25115 1.79065 9.20104 1.7299 9.13798C1.66915 9.07491 1.62131 9.00014 1.58915 8.91802C1.557 8.83591 1.54117 8.74808 1.5426 8.65967C1.54403 8.57125 1.56269 8.48401 1.59748 8.40302C1.63227 8.32203 1.6825 8.24891 1.74525 8.18792C1.80801 8.12693 1.88202 8.07929 1.96299 8.04777L5.22966 6.71444C5.30936 6.68193 5.39456 6.66576 5.48039 6.66686C5.56621 6.66797 5.65099 6.68632 5.72986 6.72086C5.80874 6.75541 5.88017 6.80548 5.94008 6.8682C5.99998 6.93093 6.04718 7.00509 6.07899 7.08644L6.07834 7.08577ZM5.71443 11.2858C5.87267 11.2183 5.99856 11.09 6.06493 10.9287C6.13131 10.7673 6.13284 10.5858 6.06921 10.4233C6.00558 10.2608 5.88188 10.1303 5.72481 10.0601C5.56774 9.98982 5.38989 9.9854 5.22966 10.0478L1.96299 11.3811C1.80476 11.4486 1.67887 11.5768 1.61249 11.7382C1.54612 11.8996 1.54458 12.0811 1.60821 12.2436C1.67185 12.4061 1.79555 12.5365 1.95262 12.6068C2.10969 12.6771 2.28753 12.6815 2.44776 12.6191L5.71443 11.2858Z" fill="#FF5310"/>
  </g>
  <defs>
    <clipPath id="clip0_3792_36438">
      <rect width="15.68" height="16" fill="white" transform="translate(0.25)"/>
    </clipPath>
  </defs>
</svg>