<svg width="61" height="61" viewBox="0 0 61 61" fill="none" xmlns="http://www.w3.org/2000/svg">
<circle opacity="0.5" cx="30.2812" cy="30.5728" r="30" fill="#C2FBFF"/>
<circle cx="30.2812" cy="30.5728" r="20" fill="#00D5E5"/>
<path d="M37.0899 39.3268V23.7642C37.0899 22.6898 36.219 21.8188 35.1446 21.8188H25.418C24.3436 21.8188 23.4727 22.6898 23.4727 23.7642V39.3268M37.0899 39.3268L39.0353 39.3267M37.0899 39.3268H32.2266M23.4727 39.3268L21.5273 39.3267M23.4727 39.3268H28.336M27.3633 25.7095H28.336M27.3633 29.6001H28.336M32.2266 25.7095H33.1993M32.2266 29.6001H33.1993M28.336 39.3268V34.4634C28.336 33.9262 28.7715 33.4908 29.3086 33.4908H31.254C31.7911 33.4908 32.2266 33.9262 32.2266 34.4634V39.3268M28.336 39.3268H32.2266" stroke="#1D1B1B" stroke-linecap="round" stroke-linejoin="round"/>
</svg>
