<svg width="16" height="16" viewBox="0 0 16 16" fill="none" xmlns="http://www.w3.org/2000/svg">
<path d="M11.8393 2.71424H11.875H12.3393H12.8215C13.2003 2.71424 13.5637 2.86476 13.8316 3.13267C14.0953 3.39636 14.2453 3.75254 14.2499 4.12497H1.75011C1.75476 3.75254 1.90472 3.39636 2.16842 3.13267C2.43633 2.86476 2.7997 2.71424 3.17858 2.71424H3.66072H4.12501H4.16072H4.62501H11.375H11.8393ZM2.16842 13.8316C1.90051 13.5637 1.75 13.2003 1.75 12.8214V6.08926H14.25V12.8214C14.25 13.2003 14.0995 13.5637 13.8316 13.8316C13.5637 14.0995 13.2003 14.25 12.8215 14.25H3.17858C2.7997 14.25 2.43633 14.0995 2.16842 13.8316Z" stroke="#222222"/>
<circle cx="4.75" cy="8.75" r="0.75" fill="#222222"/>
<circle cx="8" cy="8.75" r="0.75" fill="#222222"/>
<circle cx="11.25" cy="8.75" r="0.75" fill="#222222"/>
<circle cx="4.75" cy="11.25" r="0.75" fill="#222222"/>
<circle cx="8" cy="11.25" r="0.75" fill="#222222"/>
<circle cx="11.25" cy="11.25" r="0.75" fill="#222222"/>
</svg>
