<svg width="24" height="25" viewBox="0 0 24 25" fill="none" xmlns="http://www.w3.org/2000/svg">
<path id="Vector" d="M18.2524 24.4932C17.2327 24.3925 16.2495 24.1296 15.2919 23.7717C13.0684 22.9416 11.0768 21.7078 9.22298 20.2404C6.60634 18.1694 4.38144 15.7398 2.5961 12.9158C1.51005 11.1977 0.65235 9.37666 0.193527 7.38494C0.116462 7.04917 0.0729347 6.70626 0.0129952 6.36692C-0.0455171 6.03259 0.102904 5.76112 0.271306 5.49394C0.843585 4.58594 1.51362 3.75296 2.20578 2.93641C2.78876 2.24916 3.39387 1.58263 4.07104 0.983969C4.85239 0.29315 5.21274 0.323869 5.83569 1.19257C6.70481 2.40347 7.48045 3.67366 8.19901 4.97957C8.44805 5.43178 8.66854 5.89828 8.87333 6.37407C9.04887 6.78199 8.97466 7.12132 8.65926 7.41208C8.34458 7.70213 8.02276 7.98503 7.69595 8.26078C7.36842 8.53725 7.0516 8.82372 6.7519 9.1302C6.66199 9.22236 6.63845 9.29737 6.67769 9.4331C7.38983 11.8899 8.77058 13.9052 10.7329 15.5197C12.0087 16.5699 13.4245 17.3764 15.0357 17.8079C15.1791 17.8465 15.2583 17.8258 15.3604 17.7286C15.8192 17.2893 16.2074 16.7878 16.6241 16.312C17.5003 15.3104 17.5688 15.3447 18.6777 15.8769C20.3111 16.6613 21.8502 17.6158 23.3073 18.6902C24.2813 19.4089 24.1129 19.6989 23.5093 20.3955C22.5645 21.4856 21.4528 22.3972 20.3211 23.2823C19.8508 23.6502 19.3692 24.0039 18.8525 24.3061C18.6692 24.4132 18.4843 24.5311 18.2517 24.4925L18.2524 24.4932Z" fill="#FF5310"/>
</svg>
