<svg width="30" height="30" viewBox="0 0 30 30" fill="none" xmlns="http://www.w3.org/2000/svg">
<circle cx="15" cy="15" r="15" fill="#00D5E5"/>
<rect width="17.5079" height="17.5079" transform="translate(6.24609 6.24609)" fill="#00D5E5"/>
<path d="M13.7779 9.39554C14.0889 8.11425 15.9112 8.11425 16.2222 9.39554C16.4232 10.2232 17.3714 10.616 18.0988 10.1729C19.2248 9.48679 20.5133 10.7753 19.8272 11.9013C19.384 12.6286 19.7768 13.5769 20.6045 13.7779C21.8858 14.0889 21.8858 15.9112 20.6045 16.2222C19.7768 16.4232 19.384 17.3714 19.8272 18.0988C20.5133 19.2248 19.2248 20.5133 18.0988 19.8272C17.3714 19.384 16.4232 19.7768 16.2222 20.6045C15.9112 21.8858 14.0889 21.8858 13.7779 20.6045C13.5769 19.7768 12.6286 19.384 11.9013 19.8272C10.7753 20.5133 9.48679 19.2248 10.1729 18.0988C10.616 17.3714 10.2232 16.4232 9.39554 16.2222C8.11425 15.9112 8.11425 14.0889 9.39554 13.7779C10.2232 13.5769 10.616 12.6286 10.1729 11.9013C9.48679 10.7753 10.7753 9.48679 11.9013 10.1729C12.6286 10.616 13.5769 10.2232 13.7779 9.39554Z" stroke="#1D1B1B" stroke-width="0.7" stroke-linecap="round" stroke-linejoin="round"/>
<path d="M17.1885 15C17.1885 16.2087 16.2087 17.1885 15 17.1885C13.7914 17.1885 12.8115 16.2087 12.8115 15C12.8115 13.7914 13.7914 12.8115 15 12.8115C16.2087 12.8115 17.1885 13.7914 17.1885 15Z" stroke="#1D1B1B" stroke-width="0.7" stroke-linecap="round" stroke-linejoin="round"/>
</svg>
