<svg width="21" height="21" viewBox="0 0 21 21" fill="none" xmlns="http://www.w3.org/2000/svg">
<path fill-rule="evenodd" clip-rule="evenodd" d="M2.69758 6.42969C1.98043 6.42969 1.39907 6.94911 1.39907 7.58984V12.7695C1.39907 13.4103 1.98043 13.9297 2.69758 13.9297H16.1898C16.907 13.9297 17.4883 13.4103 17.4883 12.7695V7.58984C17.4883 6.94911 16.907 6.42969 16.1898 6.42969H2.69758ZM0 7.58984C0 6.25875 1.20775 5.17969 2.69758 5.17969H16.1898C17.6797 5.17969 18.8874 6.25875 18.8874 7.58984V12.7695C18.8874 14.1006 17.6797 15.1797 16.1898 15.1797H2.69758C1.20775 15.1797 0 14.1006 0 12.7695V7.58984ZM15.6659 7.95054H3.22161C3.12502 7.95054 3.04672 8.0205 3.04672 8.10679V12.2529C3.04672 12.3392 3.12502 12.4091 3.22161 12.4091H15.6659C15.7625 12.4091 15.8408 12.3392 15.8408 12.2529V8.10679C15.8408 8.0205 15.7625 7.95054 15.6659 7.95054ZM20.9844 8.72126C20.9844 8.37608 20.6712 8.09626 20.2849 8.09626C19.8985 8.09626 19.5854 8.37608 19.5854 8.72126V11.6377C19.5854 11.9828 19.8985 12.2627 20.2849 12.2627C20.6712 12.2627 20.9844 11.9828 20.9844 11.6377V8.72126Z" fill="#222222"/>
</svg>
