<svg width="21" height="20" viewBox="0 0 21 20" fill="none" xmlns="http://www.w3.org/2000/svg">
<path d="M16.6764 13.3505C16.4358 13.1281 16.0822 13.0734 15.7796 13.0224C15.3603 12.9531 15.1999 12.8766 14.9556 12.6578C14.4342 12.1948 14.4342 11.524 14.9556 11.0609L16.0603 10.0802C17.752 8.58542 17.752 6.13542 16.0603 4.64062C14.8134 3.54323 13.14 3 11.4009 3C9.37018 3 7.24831 3.7401 5.61133 5.19115C2.56706 7.88177 2.56706 12.2896 5.61133 14.9802C7.12435 16.3182 9.16602 16.9854 11.1858 17H11.2478C13.2676 17 15.2582 16.3474 16.6728 15.0896C17.1978 14.6266 17.1099 13.7552 16.6764 13.3505Z" stroke="#222222" stroke-miterlimit="10"/>
<path d="M6.24479 9.41732C6.88912 9.41732 7.41146 8.89498 7.41146 8.25065C7.41146 7.60632 6.88912 7.08398 6.24479 7.08398C5.60046 7.08398 5.07812 7.60632 5.07812 8.25065C5.07812 8.89498 5.60046 9.41732 6.24479 9.41732Z" fill="#222222"/>
<path d="M6.53385 13.1712C7.17819 13.1712 7.70052 12.6489 7.70052 12.0046C7.70052 11.3602 7.17819 10.8379 6.53385 10.8379C5.88952 10.8379 5.36719 11.3602 5.36719 12.0046C5.36719 12.6489 5.88952 13.1712 6.53385 13.1712Z" fill="#222222"/>
<path d="M9.15885 7.08333C9.80319 7.08333 10.3255 6.561 10.3255 5.91667C10.3255 5.27233 9.80319 4.75 9.15885 4.75C8.51452 4.75 7.99219 5.27233 7.99219 5.91667C7.99219 6.561 8.51452 7.08333 9.15885 7.08333Z" fill="#222222"/>
<path d="M10.3281 15.7969C11.2946 15.7969 12.0781 15.0134 12.0781 14.0469C12.0781 13.0804 11.2946 12.2969 10.3281 12.2969C9.36163 12.2969 8.57812 13.0804 8.57812 14.0469C8.57812 15.0134 9.36163 15.7969 10.3281 15.7969Z" fill="#222222"/>
<path d="M12.9557 7.08333C13.6001 7.08333 14.1224 6.561 14.1224 5.91667C14.1224 5.27233 13.6001 4.75 12.9557 4.75C12.3114 4.75 11.7891 5.27233 11.7891 5.91667C11.7891 6.561 12.3114 7.08333 12.9557 7.08333Z" fill="#222222"/>
</svg>
