<svg width="18" height="19" viewBox="0 0 18 19" fill="none" xmlns="http://www.w3.org/2000/svg">
<path d="M14.5 9.5C14.5 6.46354 12.0365 4 9 4C5.96354 4 3.5 6.46354 3.5 9.5C3.5 12.5365 5.96354 15 9 15C12.0365 15 14.5 12.5365 14.5 9.5Z" stroke="#222222" stroke-width="0.916667" stroke-miterlimit="10"/>
<path d="M11.7069 6.49017L8.34959 7.83308C8.11901 7.92529 7.90957 8.06338 7.73398 8.23898C7.55838 8.41458 7.42029 8.62402 7.32808 8.85459L5.98516 12.2119C5.96849 12.2535 5.96441 12.2992 5.97342 12.3431C5.98244 12.387 6.00415 12.4274 6.03587 12.4591C6.06759 12.4908 6.10792 12.5125 6.15187 12.5215C6.19581 12.5306 6.24143 12.5265 6.28308 12.5098L9.64037 11.1669C9.87095 11.0747 10.0804 10.9366 10.256 10.761C10.4316 10.5854 10.5697 10.376 10.6619 10.1454L12.0048 6.78808C12.0215 6.74644 12.0255 6.70081 12.0165 6.65687C12.0075 6.61293 11.9858 6.5726 11.9541 6.54088C11.9224 6.50916 11.882 6.48744 11.8381 6.47843C11.7941 6.46942 11.7485 6.4735 11.7069 6.49017ZM8.99498 10.1875C8.859 10.1875 8.72608 10.1472 8.61302 10.0716C8.49997 9.99608 8.41185 9.8887 8.35981 9.76308C8.30778 9.63745 8.29416 9.49922 8.32069 9.36586C8.34722 9.2325 8.41269 9.11 8.50884 9.01385C8.60499 8.9177 8.72749 8.85222 8.86085 8.82569C8.99422 8.79917 9.13245 8.81278 9.25807 8.86482C9.3837 8.91685 9.49107 9.00497 9.56661 9.11803C9.64216 9.23109 9.68248 9.36401 9.68248 9.49998C9.68248 9.68232 9.61005 9.85719 9.48111 9.98612C9.35218 10.1151 9.17732 10.1875 8.99498 10.1875Z" fill="#222222"/>
</svg>
