<svg width="98" height="99" viewBox="0 0 98 99" fill="none" xmlns="http://www.w3.org/2000/svg">
<g id="Group 183097">
<g id="Group">
<path id="Vector" d="M48.9993 97.3737C75.4396 97.3737 96.8737 75.9396 96.8737 49.4993C96.8737 23.0591 75.4396 1.625 48.9993 1.625C22.5591 1.625 1.125 23.0591 1.125 49.4993C1.125 75.9396 22.5591 97.3737 48.9993 97.3737Z" fill="#00E05A" stroke="black" stroke-width="1.5" stroke-miterlimit="10"/>
<path id="Vector_2" d="M49 97.4977C22.5335 97.4977 1 75.9666 1 49.5C1 23.0335 22.5335 1.5 49 1.5C75.4666 1.5 97 23.0335 97 49.5C97 75.9666 75.4666 97.5 49 97.5V97.4977ZM49 1.74898C22.6707 1.74898 1.24898 23.1707 1.24898 49.5C1.24898 75.8293 22.6684 97.2487 48.9977 97.2487C75.3269 97.2487 96.7464 75.8293 96.7464 49.5C96.7464 23.1707 75.3293 1.74898 49 1.74898Z" fill="#00E05A" stroke="black" stroke-width="1.5" stroke-miterlimit="10"/>
</g>
<g id="Group_2">
<g id="Group_3">
<path id="Vector_3" d="M17.7618 38.8887C17.8967 39.1819 18.0014 39.489 18.0759 39.8078C18.1504 40.1266 18.1853 40.4664 18.1806 40.827C18.176 41.1854 18.1248 41.574 18.0317 41.9882C17.8851 42.6397 17.6291 43.2145 17.2685 43.7124C16.9078 44.2104 16.475 44.613 15.9724 44.9224C15.4697 45.2319 14.9136 45.439 14.3039 45.5414C13.6943 45.6438 13.066 45.6228 12.4214 45.4762C11.7862 45.332 11.2138 45.0853 10.7042 44.734C10.1946 44.3826 9.77805 43.9568 9.44995 43.4565C9.12186 42.9538 8.9008 42.3977 8.78445 41.7834C8.67043 41.1691 8.68905 40.5245 8.8403 39.8451C8.93105 39.4379 9.04972 39.0749 9.19399 38.7561C9.33826 38.4373 9.50115 38.1511 9.6873 37.8998C9.87346 37.6484 10.0782 37.4227 10.3016 37.2226C10.525 37.0225 10.7623 36.841 11.0137 36.6758L11.9444 37.9416C11.5326 38.2232 11.1812 38.5397 10.888 38.891C10.5948 39.2447 10.39 39.6729 10.276 40.1825C10.1806 40.606 10.1736 41.0155 10.2574 41.4134C10.3412 41.8113 10.4947 42.1743 10.7205 42.5001C10.9438 42.8282 11.2324 43.1051 11.5814 43.3355C11.9305 43.5658 12.326 43.731 12.7658 43.8288C13.2056 43.9288 13.6361 43.9498 14.055 43.8916C14.4738 43.8334 14.8554 43.7078 15.2045 43.51C15.5512 43.3122 15.849 43.0516 16.0957 42.7281C16.3423 42.4047 16.5122 42.0324 16.6099 41.6089C16.7333 41.0667 16.7333 40.578 16.6146 40.1406C16.4959 39.7031 16.3004 39.254 16.0305 38.7933L17.2731 38.0184C17.4662 38.3023 17.6315 38.5908 17.7664 38.884L17.7618 38.8887Z" fill="black"/>
<path id="Vector_4" d="M20.9894 28.6C21.3687 29.0887 21.6386 29.6262 21.7991 30.2103C21.9597 30.7943 22.0039 31.4016 21.9294 32.0299C21.8573 32.6605 21.6456 33.2795 21.2942 33.8891C20.9428 34.4988 20.5147 34.9944 20.0097 35.3737C19.5048 35.7553 18.9626 36.0183 18.3855 36.1672C17.8084 36.3161 17.2127 36.3487 16.5984 36.2649C15.9841 36.1812 15.4001 35.9787 14.8416 35.6576C14.2855 35.3365 13.8154 34.9316 13.4361 34.4406C13.0568 33.952 12.7869 33.4144 12.6264 32.8304C12.4658 32.2463 12.4216 31.6413 12.4961 31.0107C12.5682 30.3801 12.7799 29.7612 13.1313 29.1515C13.4827 28.5418 13.9108 28.0462 14.4158 27.6669C14.9207 27.2876 15.4629 27.0224 16.04 26.8734C16.6171 26.7245 17.2127 26.6919 17.8271 26.7757C18.4414 26.8595 19.0254 27.0619 19.5839 27.383C20.14 27.7042 20.6101 28.109 20.9894 28.6ZM17.5641 28.4232C17.1453 28.358 16.7404 28.3697 16.3471 28.4581C15.9539 28.5465 15.5885 28.714 15.2465 28.9584C14.9044 29.2027 14.6205 29.5215 14.3948 29.9124C14.1691 30.3033 14.0365 30.7059 13.9923 31.1178C13.9504 31.5296 13.9876 31.9252 14.1063 32.3045C14.225 32.6838 14.4158 33.0375 14.6834 33.3656C14.951 33.696 15.2744 33.9706 15.6584 34.1916C16.0423 34.4127 16.4425 34.557 16.8614 34.6221C17.2802 34.6873 17.6851 34.6756 18.0784 34.5872C18.4716 34.4988 18.8369 34.3313 19.179 34.0869C19.5211 33.8426 19.805 33.5238 20.0307 33.1329C20.2564 32.742 20.389 32.3394 20.4332 31.9275C20.4751 31.5157 20.4379 31.1201 20.3192 30.7408C20.2005 30.3638 20.0097 30.0078 19.7421 29.6797C19.4769 29.3516 19.1511 29.0747 18.7671 28.8537C18.3832 28.6326 17.983 28.4883 17.5641 28.4232Z" fill="black"/>
<path id="Vector_5" d="M23.1103 17.7017L24.2947 16.6406L30.3843 23.4329L29.3861 24.3265L21.3162 22.8466L25.649 27.6773L24.4646 28.7384L18.375 21.946L19.478 20.9571L27.3197 22.3975L23.1103 17.7017Z" fill="black"/>
<path id="Vector_6" d="M34.6467 12.6836L29.9812 14.95L31.0819 17.2118L35.2191 15.2013L35.8521 16.5021L31.7148 18.5125L33.339 21.8517L31.9102 22.5474L27.9219 14.345L34.0161 11.3828L34.649 12.6836H34.6467Z" fill="black"/>
<path id="Vector_7" d="M38.6139 10.1094L40.9897 18.9168L39.4539 19.331L37.0781 10.5236L38.6139 10.1094Z" fill="black"/>
<path id="Vector_8" d="M48.7717 17.9601L46.3331 14.9235L44.325 15.0468L44.5204 18.2208L42.9335 18.3185L42.375 9.2132L46.4332 8.96421C46.9544 8.93164 47.4268 8.97119 47.8573 9.07823C48.2854 9.1876 48.6531 9.35514 48.9579 9.58551C49.2627 9.81354 49.5047 10.1044 49.6839 10.4558C49.8631 10.8071 49.9655 11.2027 49.9911 11.6448C50.0143 12.0265 49.9817 12.3708 49.891 12.6757C49.8002 12.9805 49.6676 13.2551 49.4908 13.4971C49.3139 13.7391 49.0975 13.9462 48.8439 14.123C48.5902 14.2999 48.304 14.4418 47.9899 14.5465L50.6589 17.8438L48.7717 17.9601ZM47.8037 10.7164C47.457 10.479 46.9847 10.379 46.3843 10.4162L44.0481 10.5582L44.2365 13.6274L46.5844 13.4831C47.1592 13.4482 47.6059 13.2807 47.9294 12.9805C48.2505 12.6803 48.3971 12.2964 48.3692 11.8263C48.3389 11.3214 48.1504 10.9514 47.8037 10.7141V10.7164Z" fill="black"/>
<path id="Vector_9" d="M56.6239 16.8095L56.5727 16.7979L54.8368 11.9602L53.2615 18.2825L51.7188 17.8985L53.9247 9.04688L55.5815 9.45874L57.2313 14.3151L60.9683 10.8014L62.6251 11.2133L60.4192 20.0649L58.8764 19.681L60.4587 13.3331L56.6239 16.8095Z" fill="black"/>
<path id="Vector_10" d="M71.6905 17.826L67.274 15.157L66.0617 17.1651L69.9756 19.5293L69.2286 20.7672L65.3147 18.4031L64.0535 20.488L68.5259 23.1896L67.7789 24.4275L61.9453 20.9045L66.662 13.0977L72.4398 16.5881L71.6928 17.826H71.6905Z" fill="black"/>
<path id="Vector_11" d="M76.2333 29.1535C75.6632 29.3629 75.0814 29.449 74.4904 29.4095C73.8993 29.3722 73.3153 29.214 72.7382 28.9371C72.1611 28.6602 71.6306 28.26 71.1466 27.7364L68.8359 25.2419L75.5282 19.043L77.8388 21.5374C78.3228 22.061 78.6812 22.6171 78.9185 23.2105C79.1536 23.8039 79.2676 24.3972 79.2606 24.9883C79.2536 25.5817 79.1256 26.1518 78.8767 26.7032C78.6277 27.2524 78.2693 27.7457 77.797 28.1832C77.3246 28.6206 76.8034 28.9417 76.2333 29.1512V29.1535ZM77.3967 25.954C77.5712 25.584 77.669 25.2047 77.6876 24.8138C77.7062 24.4228 77.6387 24.0296 77.4875 23.6363C77.3362 23.2408 77.0989 22.8684 76.7731 22.5171L75.5468 21.1954L70.9767 25.4281L72.203 26.7498C72.5288 27.1011 72.8802 27.3687 73.2594 27.5526C73.6387 27.7364 74.0203 27.8341 74.4089 27.8504C74.7975 27.8644 75.1815 27.7992 75.5631 27.6526C75.9447 27.506 76.3031 27.2803 76.6358 26.9708C76.9686 26.6614 77.2222 26.3239 77.3967 25.954Z" fill="black"/>
</g>
<g id="Group_4">
<path id="Vector_12" d="M79.0911 60.1186C78.9562 59.8254 78.8515 59.5183 78.777 59.1995C78.7025 58.8807 78.6676 58.541 78.6723 58.1803C78.6769 57.822 78.7281 57.4334 78.8212 57.0192C78.9678 56.3676 79.2238 55.7929 79.5844 55.2949C79.9451 54.7969 80.3779 54.3944 80.8805 54.0849C81.3832 53.7754 81.9393 53.5683 82.549 53.4659C83.1609 53.3635 83.7869 53.3845 84.4314 53.5311C85.0667 53.6754 85.6391 53.922 86.1487 54.2734C86.6583 54.6247 87.0748 55.0506 87.4029 55.5509C87.731 56.0512 87.9521 56.6096 88.0684 57.2239C88.1848 57.8382 88.1639 58.4828 88.0126 59.1623C87.9219 59.5695 87.8032 59.9325 87.6589 60.2513C87.5146 60.5701 87.3517 60.8563 87.1656 61.1076C86.9794 61.3589 86.7747 61.5846 86.5513 61.7847C86.3279 61.9825 86.0905 62.1663 85.8392 62.3315L84.9085 61.0657C85.3203 60.7841 85.6717 60.4677 85.9649 60.1163C86.2581 59.7626 86.4629 59.3345 86.5769 58.8249C86.6723 58.4014 86.6793 57.9918 86.5955 57.5939C86.5117 57.196 86.3581 56.833 86.1324 56.5072C85.9067 56.1791 85.6205 55.9022 85.2715 55.6719C84.9224 55.4415 84.5268 55.2763 84.0871 55.1786C83.6473 55.0785 83.2168 55.0575 82.7979 55.1157C82.3791 55.1739 81.9975 55.2996 81.6484 55.4973C81.3017 55.6951 81.0039 55.9557 80.7572 56.2769C80.5106 56.598 80.3407 56.9726 80.243 57.3961C80.1196 57.9383 80.1196 58.427 80.2383 58.8644C80.357 59.3019 80.5524 59.751 80.8224 60.2117L79.5798 60.9866C79.3867 60.7027 79.2214 60.4142 79.0865 60.121L79.0911 60.1186Z" fill="black"/>
<path id="Vector_13" d="M75.8658 70.4016C75.4865 69.9129 75.2166 69.3754 75.056 68.7913C74.8955 68.2073 74.8513 67.5999 74.9257 66.9717C74.9979 66.3411 75.2096 65.7221 75.561 65.1124C75.9124 64.5028 76.3405 64.0072 76.8455 63.6279C77.3504 63.2462 77.8926 62.9833 78.4697 62.8344C79.0467 62.6855 79.6424 62.6529 80.2567 62.7366C80.8711 62.8204 81.4551 63.0229 82.0136 63.344C82.5697 63.6651 83.0398 64.07 83.419 64.561C83.7983 65.0496 84.0683 65.5871 84.2288 66.1712C84.3894 66.7553 84.4313 67.3603 84.3591 67.9909C84.287 68.6215 84.0752 69.2404 83.7239 69.8501C83.3725 70.4597 82.9444 70.9554 82.4394 71.3347C81.9345 71.714 81.3923 71.9792 80.8152 72.1282C80.2381 72.2771 79.6424 72.3096 79.0281 72.2259C78.4138 72.1421 77.8297 71.9397 77.2713 71.6186C76.7151 71.2974 76.2451 70.8925 75.8658 70.4016ZM79.2911 70.5784C79.7099 70.6436 80.1148 70.6319 80.5081 70.5435C80.9013 70.4551 81.2666 70.2875 81.6087 70.0432C81.9508 69.7989 82.2346 69.4801 82.4604 69.0892C82.6861 68.6983 82.8187 68.2957 82.8629 67.8838C82.9048 67.472 82.8676 67.0764 82.7489 66.6971C82.6302 66.3178 82.4394 65.9641 82.1718 65.636C81.9042 65.3056 81.5808 65.031 81.1968 64.8099C80.8129 64.5889 80.4126 64.4446 79.9938 64.3795C79.575 64.3143 79.1701 64.3259 78.7768 64.4144C78.3836 64.5028 78.0182 64.6703 77.6762 64.9147C77.3341 65.159 77.0502 65.4778 76.8245 65.8687C76.5988 66.2596 76.4662 66.6622 76.422 67.074C76.3801 67.4859 76.4173 67.8815 76.536 68.2608C76.6547 68.6378 76.8455 68.9938 77.1131 69.3219C77.3807 69.65 77.7041 69.9269 78.088 70.1479C78.472 70.369 78.8722 70.5133 79.2911 70.5784Z" fill="black"/>
<path id="Vector_14" d="M73.7427 81.3023L72.5583 82.3634L66.4688 75.571L67.467 74.6775L75.5368 76.1574L71.2041 71.3267L72.3885 70.2656L78.4781 77.0579L77.3751 78.0469L69.5333 76.6065L73.7427 81.3023Z" fill="black"/>
<path id="Vector_15" d="M62.1975 86.3209L66.863 84.0545L65.7624 81.7927L61.6251 83.8032L60.9922 82.5024L65.1295 80.4919L63.5053 77.1528L64.934 76.457L68.9224 84.6595L62.8281 87.6217L62.1952 86.3209H62.1975Z" fill="black"/>
<path id="Vector_16" d="M58.2352 88.8935L55.8594 80.0861L57.3951 79.6719L59.771 88.4793L58.2352 88.8935Z" fill="black"/>
<path id="Vector_17" d="M48.0879 81.0458L50.5266 84.0825L52.5347 83.9592L52.3392 80.7852L53.9262 80.6875L54.4847 89.7928L50.4265 90.0418C49.9053 90.0743 49.4329 90.0348 49.0024 89.9278C48.5743 89.8184 48.2066 89.6509 47.9018 89.4205C47.597 89.1924 47.355 88.9016 47.1758 88.5502C46.9966 88.1988 46.8942 87.8033 46.8686 87.3611C46.8454 86.9795 46.8779 86.6351 46.9687 86.3303C47.0594 86.0255 47.1921 85.7509 47.3689 85.5089C47.5458 85.2669 47.7622 85.0575 48.0158 84.883C48.2718 84.7061 48.5557 84.5642 48.8721 84.4571L46.2031 81.1622L48.0879 81.0458ZM49.0559 88.2896C49.4027 88.5269 49.875 88.627 50.4754 88.5898L52.8116 88.4478L52.6231 85.3786L50.2753 85.5229C49.7005 85.5578 49.2537 85.7253 48.9303 86.0255C48.6092 86.3257 48.4626 86.7096 48.4905 87.1796C48.5208 87.6846 48.7092 88.0546 49.0559 88.2919V88.2896Z" fill="black"/>
<path id="Vector_18" d="M40.2277 82.1929L40.2789 82.2045L42.0148 87.0422L43.5901 80.7199L45.1329 81.1039L42.927 89.9555L41.2702 89.5437L39.6204 84.6874L35.8833 88.201L34.2266 87.7892L36.4325 78.9375L37.9753 79.3214L36.3929 85.6693L40.2277 82.1929Z" fill="black"/>
<path id="Vector_19" d="M25.1657 81.1757L29.5822 83.8447L30.7945 81.8366L26.8806 79.4724L27.6276 78.2345L31.5415 80.5987L32.8003 78.5137L28.328 75.8121L29.0749 74.5742L34.9085 78.0972L30.1918 85.9041L24.4141 82.4137L25.161 81.1757H25.1657Z" fill="black"/>
<path id="Vector_20" d="M20.6214 69.8505C21.1915 69.6411 21.7732 69.5573 22.3643 69.5945C22.9553 69.6317 23.5394 69.79 24.1164 70.0669C24.6935 70.3438 25.2241 70.744 25.7081 71.2676L28.0187 73.7621L21.3265 79.961L19.0158 77.4665C18.5318 76.943 18.1711 76.3868 17.9361 75.7935C17.7011 75.2001 17.5871 74.6067 17.5941 74.0157C17.601 73.4223 17.729 72.8522 17.978 72.3007C18.227 71.7516 18.5877 71.2583 19.0577 70.8208C19.5301 70.3833 20.0513 70.0622 20.6214 69.8528V69.8505ZM19.4579 73.0523C19.2834 73.4223 19.1857 73.8016 19.1694 74.1925C19.1508 74.5835 19.2183 74.9767 19.3695 75.37C19.5208 75.7655 19.7581 76.1379 20.0839 76.4892L21.3102 77.8109L25.8803 73.5782L24.654 72.2565C24.3282 71.9052 23.9768 71.6376 23.5975 71.4537C23.2183 71.2699 22.8366 71.1698 22.448 71.1559C22.0594 71.1419 21.6755 71.2071 21.2939 71.3537C20.9123 71.5003 20.5539 71.726 20.2212 72.0355C19.8884 72.3449 19.6348 72.6824 19.4603 73.0523H19.4579Z" fill="black"/>
</g>
<path id="Vector_21" d="M13.672 61.5314C15.3375 61.5314 16.6877 60.1812 16.6877 58.5157C16.6877 56.8502 15.3375 55.5 13.672 55.5C12.0064 55.5 10.6562 56.8502 10.6562 58.5157C10.6562 60.1812 12.0064 61.5314 13.672 61.5314Z" fill="black"/>
<path id="Vector_22" d="M84.3282 41.6916C85.9937 41.6916 87.3439 40.3414 87.3439 38.6759C87.3439 37.0103 85.9937 35.6602 84.3282 35.6602C82.6627 35.6602 81.3125 37.0103 81.3125 38.6759C81.3125 40.3414 82.6627 41.6916 84.3282 41.6916Z" fill="black"/>
</g>
<path id="Vector_23" d="M49.0053 77.5224C64.4809 77.5224 77.0263 64.9769 77.0263 49.5014C77.0263 34.0259 64.4809 21.4805 49.0053 21.4805C33.5298 21.4805 20.9844 34.0259 20.9844 49.5014C20.9844 64.9769 33.5298 77.5224 49.0053 77.5224Z" fill="black"/>
<path id="Vector_24" d="M45.3305 58.9957L35.9297 49.5948L37.5748 47.9497L45.3305 55.7054L61.3445 39.6914L62.9896 41.3366L45.3305 58.9957Z" fill="#00E05A"/>
</g>
</svg>
