<svg width="24" height="25" viewBox="0 0 24 25" fill="none" xmlns="http://www.w3.org/2000/svg">
<path d="M3.22669 19.83C3.05869 19.83 2.91369 19.7932 2.79169 19.7195C2.66986 19.6458 2.57511 19.5487 2.50744 19.428C2.42944 19.31 2.39486 19.1767 2.40369 19.028C2.41252 18.8793 2.45486 18.7363 2.53069 18.599L11.0414 4.46098C11.1174 4.32365 11.2169 4.22649 11.3397 4.16949C11.4625 4.11249 11.5924 4.08398 11.7292 4.08398C11.8659 4.08398 11.9954 4.11249 12.1179 4.16949C12.2403 4.22649 12.3394 4.32365 12.4154 4.46098L20.9262 18.599C21.002 18.7363 21.0444 18.8793 21.0532 19.028C21.062 19.1767 21.0274 19.31 20.9494 19.428C20.8746 19.547 20.778 19.6437 20.6597 19.7182C20.5414 19.7927 20.3982 19.83 20.2302 19.83H3.22669ZM4.10344 18.53H19.3534L11.7284 5.82999L4.10344 18.53ZM11.7232 17.1377C11.9222 17.1377 12.0908 17.0704 12.2289 16.9357C12.3671 16.8011 12.4362 16.6342 12.4362 16.4352C12.4362 16.2362 12.3689 16.0677 12.2342 15.9295C12.0995 15.7913 11.9327 15.7222 11.7337 15.7222C11.5347 15.7222 11.3661 15.7896 11.2279 15.9242C11.0898 16.0589 11.0207 16.2257 11.0207 16.4247C11.0207 16.6237 11.088 16.7923 11.2227 16.9305C11.3574 17.0687 11.5242 17.1377 11.7232 17.1377ZM11.7234 14.5222C11.9063 14.5222 12.0611 14.46 12.1879 14.3355C12.3149 14.2108 12.3784 14.0564 12.3784 13.8722V10.3722C12.3784 10.1881 12.3166 10.0337 12.1929 9.90924C12.0693 9.78457 11.9161 9.72224 11.7334 9.72224C11.5506 9.72224 11.3958 9.78457 11.2689 9.90924C11.1419 10.0337 11.0784 10.1881 11.0784 10.3722V13.8722C11.0784 14.0564 11.1403 14.2108 11.2639 14.3355C11.3876 14.46 11.5408 14.5222 11.7234 14.5222Z" fill="#FF5310"/>
</svg>
