<svg width="24" height="24" viewBox="0 0 24 24" fill="none" xmlns="http://www.w3.org/2000/svg">
<mask id="mask0_10062_68290" style="mask-type:alpha" maskUnits="userSpaceOnUse" x="0" y="0" width="24" height="24">
<rect width="24" height="24" fill="#D9D9D9"/>
</mask>
<g mask="url(#mask0_10062_68290)">
<path d="M5.30775 20.5C4.80258 20.5 4.375 20.325 4.025 19.975C3.675 19.625 3.5 19.1974 3.5 18.6922V5.30774C3.5 4.80258 3.675 4.37499 4.025 4.02499C4.375 3.67499 4.80258 3.49999 5.30775 3.49999H13.9635L12.4635 4.99999H5.30775C5.23075 4.99999 5.16025 5.03207 5.09625 5.09624C5.03208 5.16024 5 5.23074 5 5.30774V18.6922C5 18.7692 5.03208 18.8397 5.09625 18.9037C5.16025 18.9679 5.23075 19 5.30775 19H18.6923C18.7692 19 18.8398 18.9679 18.9038 18.9037C18.9679 18.8397 19 18.7692 19 18.6922V11.473L20.5 9.97299V18.6922C20.5 19.1974 20.325 19.625 19.975 19.975C19.625 20.325 19.1974 20.5 18.6923 20.5H5.30775ZM9.5 14.5V11.0672L18.5598 2.00774C18.7148 1.85258 18.8853 1.73941 19.0712 1.66824C19.2571 1.59708 19.4462 1.56149 19.6385 1.56149C19.8347 1.56149 20.0231 1.59708 20.2038 1.66824C20.3846 1.73941 20.5493 1.84933 20.698 1.99799L21.9538 3.24999C22.0986 3.40516 22.2098 3.57633 22.2875 3.76349C22.365 3.95066 22.4038 4.14041 22.4038 4.33274C22.4038 4.52508 22.3708 4.71158 22.3048 4.89224C22.2388 5.07308 22.1282 5.24099 21.973 5.39599L12.8845 14.5H9.5ZM11 13H12.2463L18.4788 6.76724L17.8558 6.14424L17.1885 5.50199L11 11.6905V13Z" fill="#1C1B1F"/>
</g>
</svg>
