<svg width="36" height="37" viewBox="0 0 36 37" fill="none" xmlns="http://www.w3.org/2000/svg">
<path fill-rule="evenodd" clip-rule="evenodd" d="M9.172 11.2579C8 12.4289 8 14.3149 8 18.0859C8 21.8569 8 23.7429 9.172 24.9139C10.343 26.0859 12.229 26.0859 16 26.0859H20C23.771 26.0859 25.657 26.0859 26.828 24.9139C28 23.7429 28 21.8569 28 18.0859C28 14.3149 28 12.4289 26.828 11.2579C25.657 10.0859 23.771 10.0859 20 10.0859H16C12.229 10.0859 10.343 10.0859 9.172 11.2579ZM24.576 13.6059C24.7032 13.7587 24.7646 13.9558 24.7466 14.1538C24.7286 14.3518 24.6327 14.5346 24.48 14.6619L22.284 16.4919C21.397 17.2319 20.679 17.8299 20.044 18.2379C19.384 18.6629 18.741 18.9309 18 18.9309C17.259 18.9309 16.616 18.6619 15.955 18.2379C15.321 17.8299 14.603 17.2309 13.716 16.4929L11.52 14.6629C11.3671 14.5356 11.271 14.3528 11.2529 14.1547C11.2348 13.9565 11.2962 13.7593 11.4235 13.6064C11.5508 13.4535 11.7336 13.3575 11.9318 13.3394C12.1299 13.3213 12.3271 13.3826 12.48 13.5099L14.64 15.3089C15.573 16.0859 16.22 16.6239 16.768 16.9759C17.297 17.3159 17.656 17.4309 18.001 17.4309C18.346 17.4309 18.705 17.3169 19.234 16.9759C19.781 16.6239 20.429 16.0859 21.362 15.3089L23.521 13.5089C23.6739 13.3818 23.8711 13.3206 24.0691 13.3388C24.2671 13.357 24.4488 13.4531 24.576 13.6059Z" fill="#222222"/>
</svg>
