<svg width="22" height="23" viewBox="0 0 22 23" fill="none" xmlns="http://www.w3.org/2000/svg">
<g id="Vida Expert">
<path id="Vector" d="M11.4375 3.5C8.80909 3.5 6.66477 5.55109 6.66477 8.06522C6.66477 9.61674 7.48977 10.9896 8.73136 11.8152C6.14448 12.7809 4.2443 15.0825 3.97131 17.819C3.93393 18.1937 4.24276 18.5 4.61932 18.5C4.99588 18.5 5.29679 18.1933 5.34237 17.8195C5.64793 15.3137 7.61928 13.2821 10.1631 12.7638C10.2588 12.7443 10.3534 12.7996 10.3861 12.8917L10.7085 13.8016C10.7368 13.8814 10.8123 13.9348 10.897 13.9348H11.978C12.0627 13.9348 12.1382 13.8814 12.1665 13.8016L12.4889 12.8917C12.5216 12.7996 12.6162 12.7443 12.7119 12.7638C15.2557 13.2821 17.2271 15.3137 17.5326 17.8195C17.5782 18.1933 17.8791 18.5 18.2557 18.5C18.6322 18.5 18.9411 18.1937 18.9037 17.819C18.6307 15.0825 16.7305 12.7809 14.1436 11.8152C15.3845 10.9896 16.2102 9.61674 16.2102 8.06522C16.2102 5.55109 14.0659 3.5 11.4375 3.5ZM11.4375 4.80435C13.3282 4.80435 14.8466 6.25674 14.8466 8.06522C14.8466 9.8737 13.3282 11.3261 11.4375 11.3261C9.54682 11.3261 8.02841 9.8737 8.02841 8.06522C8.02841 6.25674 9.54682 4.80435 11.4375 4.80435ZM10.7836 14.587C10.7674 14.587 10.7537 14.5985 10.7509 14.6144L10.3079 17.1566C10.1857 17.858 10.7256 18.5 11.4375 18.5C12.1494 18.5 12.6893 17.858 12.5671 17.1566L12.1241 14.6144C12.1213 14.5985 12.1076 14.587 12.0914 14.587H10.7836Z" fill="white"/>
</g>
</svg>
