<svg xmlns="http://www.w3.org/2000/svg" width="16" height="16" viewBox="0 0 16 16" fill="none">
  <path d="M8.05132 2.66602C9.26722 2.66613 10.4532 3.05088 11.4459 3.76728C12.4387 4.48368 13.1893 5.4965 13.5946 6.66628C13.9998 7.83606 14.0397 9.10527 13.7088 10.2991C13.3778 11.493 12.6923 12.5528 11.7466 13.3327H4.35606C3.41036 12.5528 2.72484 11.493 2.39388 10.2991C2.06293 9.10527 2.10282 7.83606 2.50807 6.66628C2.91331 5.4965 3.66398 4.48368 4.65671 3.76728C5.64945 3.05088 6.83541 2.66613 8.05132 2.66602Z" stroke="#FF5310" stroke-width="1.31993" stroke-linecap="round" stroke-linejoin="round"/>
  <path d="M13.269 6H7.51969C7.42028 6.00013 7.32221 6.02341 7.23294 6.06806C7.14368 6.11271 7.06558 6.17756 7.00459 6.25767C6.9436 6.33777 6.90133 6.43103 6.881 6.53032C6.86067 6.62962 6.86281 6.73234 6.88726 6.83067C7.2185 8.164 7.92998 9.10933 9.02236 9.66667C10.329 10.3333 11.8533 10.6667 13.5957 10.6667" stroke="#FF5310" stroke-width="1.31993" stroke-linecap="round" stroke-linejoin="round"/>
</svg>