<svg width="15" height="15" viewBox="0 0 15 15" fill="none" xmlns="http://www.w3.org/2000/svg">
<path d="M8.46094 10.168C8.46094 10.255 8.42637 10.3385 8.36483 10.4C8.3033 10.4615 8.21984 10.4961 8.13281 10.4961C7.92976 10.4961 7.73502 10.4154 7.59144 10.2718C7.44785 10.1283 7.36719 9.93353 7.36719 9.73047V7.54297C7.36719 7.51396 7.35567 7.48614 7.33516 7.46563C7.31464 7.44512 7.28682 7.43359 7.25781 7.43359C7.17079 7.43359 7.08733 7.39902 7.0258 7.33749C6.96426 7.27595 6.92969 7.19249 6.92969 7.10547C6.92969 7.01844 6.96426 6.93498 7.0258 6.87345C7.08733 6.81191 7.17079 6.77734 7.25781 6.77734C7.46087 6.77734 7.65561 6.85801 7.79919 7.00159C7.94278 7.14517 8.02344 7.33991 8.02344 7.54297V9.73047C8.02344 9.75948 8.03496 9.7873 8.05548 9.80781C8.07599 9.82832 8.10381 9.83984 8.13281 9.83984C8.21984 9.83984 8.3033 9.87441 8.36483 9.93595C8.42637 9.99748 8.46094 10.0809 8.46094 10.168ZM7.47656 5.68359C7.58473 5.68359 7.69046 5.65152 7.78039 5.59143C7.87033 5.53134 7.94042 5.44593 7.98181 5.346C8.0232 5.24607 8.03403 5.13611 8.01293 5.03003C7.99183 4.92395 7.93975 4.8265 7.86326 4.75002C7.78678 4.67354 7.68934 4.62145 7.58326 4.60035C7.47717 4.57925 7.36721 4.59008 7.26728 4.63147C7.16736 4.67286 7.08195 4.74296 7.02185 4.83289C6.96176 4.92282 6.92969 5.02856 6.92969 5.13672C6.92969 5.28176 6.98731 5.42086 7.08987 5.52342C7.19242 5.62598 7.33152 5.68359 7.47656 5.68359ZM13.2734 7.54297C13.2734 8.64622 12.9463 9.72469 12.3334 10.642C11.7204 11.5593 10.8492 12.2743 9.82997 12.6965C8.8107 13.1187 7.68913 13.2291 6.60708 13.0139C5.52503 12.7987 4.5311 12.2674 3.75098 11.4873C2.97087 10.7072 2.43961 9.71326 2.22437 8.63121C2.00914 7.54916 2.1196 6.42758 2.5418 5.40831C2.96399 4.38904 3.67896 3.51786 4.59627 2.90493C5.51359 2.29199 6.59207 1.96484 7.69531 1.96484C9.17419 1.96658 10.592 2.55483 11.6377 3.60056C12.6835 4.64628 13.2717 6.06409 13.2734 7.54297ZM12.6172 7.54297C12.6172 6.56951 12.3285 5.61792 11.7877 4.80852C11.2469 3.99912 10.4782 3.36827 9.57884 2.99575C8.67948 2.62322 7.68986 2.52575 6.73511 2.71567C5.78035 2.90558 4.90336 3.37434 4.21502 4.06268C3.52669 4.75101 3.05792 5.62801 2.86801 6.58276C2.6781 7.53751 2.77557 8.52713 3.1481 9.42649C3.52062 10.3258 4.15147 11.0945 4.96087 11.6354C5.77027 12.1762 6.72186 12.4648 7.69531 12.4648C9.00023 12.4634 10.2513 11.9444 11.174 11.0217C12.0967 10.0989 12.6157 8.84789 12.6172 7.54297Z" fill="#222222"/>
</svg>
