<svg width="36" height="37" viewBox="0 0 36 37" fill="none" xmlns="http://www.w3.org/2000/svg">
<g id="solar:phone-bold">
<path id="Vector" d="M17.9989 9.08594C14.4499 9.08594 11.5703 11.6779 11.5703 14.8717C11.5703 18.9487 15.6105 24.2378 17.285 26.2549C17.6618 26.7087 18.336 26.7087 18.7127 26.2549C20.3873 24.2378 24.4275 18.9487 24.4275 14.8717C24.4275 11.6779 21.5479 9.08594 17.9989 9.08594ZM17.9989 18.0859C17.4903 18.0859 16.9931 17.9351 16.5703 17.6526C16.1474 17.37 15.8178 16.9684 15.6232 16.4986C15.4286 16.0287 15.3776 15.5117 15.4769 15.0128C15.5761 14.514 15.821 14.0559 16.1806 13.6962C16.5402 13.3366 16.9984 13.0917 17.4972 12.9925C17.996 12.8933 18.5131 12.9442 18.9829 13.1388C19.4528 13.3334 19.8544 13.663 20.1369 14.0859C20.4195 14.5088 20.5703 15.0059 20.5703 15.5145C20.5696 16.1963 20.2984 16.8499 19.8163 17.332C19.3343 17.814 18.6806 18.0852 17.9989 18.0859Z" fill="#222222"/>
</g>
</svg>
