<svg width="14" height="13" viewBox="0 0 14 13" fill="none" xmlns="http://www.w3.org/2000/svg">
<g id="Frame 1410095375">
<circle id="Ellipse 248" cx="6.99807" cy="2.92385" r="1.81057" stroke="#222222" stroke-miterlimit="10" stroke-linecap="round"/>
<circle id="Ellipse 249" cx="3.01369" cy="8.86135" r="1.81057" stroke="#222222" stroke-miterlimit="10" stroke-linecap="round"/>
<g id="Subtract">
<path fill-rule="evenodd" clip-rule="evenodd" d="M8.80509 3.01905C8.79522 3.20958 8.75589 3.39231 8.69159 3.56279C10.0344 4.17715 10.9854 5.49978 11.0667 7.05276C11.2586 7.06166 11.4426 7.10043 11.6144 7.16452C11.5729 5.30067 10.4269 3.70928 8.80509 3.01905ZM10.2702 10.5269C10.0966 10.4527 9.937 10.3522 9.79635 10.2303C9.06659 10.92 8.08197 11.343 6.99857 11.343C5.91442 11.343 4.92918 10.9195 4.19927 10.2289C4.05882 10.3508 3.89939 10.4515 3.726 10.526C4.56212 11.3661 5.71961 11.8861 6.99857 11.8861C8.27704 11.8861 9.43414 11.3665 10.2702 10.5269ZM5.30284 3.56403C3.96151 4.17891 3.01174 5.50075 2.93045 7.05261C2.73863 7.06118 2.55457 7.09959 2.38281 7.16332C2.42471 5.30118 3.56912 3.71116 5.18894 3.02038C5.19895 3.21089 5.2384 3.39359 5.30284 3.56403Z" fill="#222222"/>
<path d="M8.69159 3.56279L8.50446 3.4922L8.43853 3.66695L8.60838 3.74465L8.69159 3.56279ZM8.80509 3.01905L8.88341 2.83502L8.62016 2.72299L8.60535 3.0087L8.80509 3.01905ZM11.0667 7.05276L10.867 7.06321L10.8764 7.24415L11.0574 7.25254L11.0667 7.05276ZM11.6144 7.16452L11.5444 7.35189L11.8209 7.45506L11.8143 7.16007L11.6144 7.16452ZM10.2702 10.5269L10.4119 10.668L10.6201 10.459L10.3488 10.343L10.2702 10.5269ZM9.79635 10.2303L9.92731 10.0791L9.79051 9.96062L9.65897 10.0849L9.79635 10.2303ZM4.19927 10.2289L4.33672 10.0836L4.20502 9.95897L4.06812 10.0779L4.19927 10.2289ZM3.726 10.526L3.64713 10.3422L3.3765 10.4583L3.58424 10.667L3.726 10.526ZM2.93045 7.05261L2.93937 7.25241L3.12068 7.24432L3.13018 7.06307L2.93045 7.05261ZM5.30284 3.56403L5.38618 3.74584L5.55597 3.668L5.48992 3.4933L5.30284 3.56403ZM2.38281 7.16332L2.18286 7.15882L2.17624 7.45329L2.45239 7.35083L2.38281 7.16332ZM5.18894 3.02038L5.38866 3.00989L5.37366 2.72418L5.11048 2.83641L5.18894 3.02038ZM8.87871 3.63338C8.9502 3.44387 8.99387 3.24083 9.00482 3.0294L8.60535 3.0087C8.59657 3.17832 8.56159 3.34075 8.50446 3.4922L8.87871 3.63338ZM11.2664 7.0423C11.1811 5.41256 10.1831 4.02526 8.77479 3.38092L8.60838 3.74465C9.88567 4.32904 10.7897 5.58701 10.867 7.06321L11.2664 7.0423ZM11.0574 7.25254C11.2283 7.26047 11.3919 7.29496 11.5444 7.35189L11.6843 6.97714C11.4934 6.90589 11.2889 6.86285 11.076 6.85297L11.0574 7.25254ZM8.72677 3.20308C10.2787 3.86357 11.3747 5.38628 11.4144 7.16896L11.8143 7.16007C11.771 5.21505 10.5751 3.55498 8.88341 2.83502L8.72677 3.20308ZM10.3488 10.343C10.1945 10.2771 10.0525 10.1876 9.92731 10.0791L9.66539 10.3815C9.82147 10.5167 9.99871 10.6284 10.1916 10.7108L10.3488 10.343ZM6.99857 11.543C8.13507 11.543 9.16832 11.0991 9.93373 10.3756L9.65897 10.0849C8.96486 10.741 8.02887 11.143 6.99857 11.143V11.543ZM4.06181 10.3741C4.82738 11.0985 5.86128 11.543 6.99857 11.543V11.143C5.96755 11.143 5.03098 10.7404 4.33672 10.0836L4.06181 10.3741ZM3.80487 10.7097C3.99753 10.6271 4.17455 10.5152 4.33041 10.3799L4.06812 10.0779C3.94308 10.1865 3.80125 10.276 3.64713 10.3422L3.80487 10.7097ZM6.99857 11.6861C5.77497 11.6861 4.66788 11.1889 3.86776 10.3849L3.58424 10.667C4.45636 11.5434 5.66426 12.0861 6.99857 12.0861V11.6861ZM10.1285 10.3858C9.32842 11.1892 8.22171 11.6861 6.99857 11.6861V12.0861C8.33237 12.0861 9.53987 11.5438 10.4119 10.668L10.1285 10.3858ZM3.13018 7.06307C3.20745 5.58793 4.11029 4.33072 5.38618 3.74584L5.2195 3.38222C3.81272 4.02711 2.81603 5.41357 2.73073 7.04215L3.13018 7.06307ZM2.45239 7.35083C2.60497 7.29422 2.76858 7.26004 2.93937 7.25241L2.92153 6.85281C2.70868 6.86232 2.50418 6.90497 2.31324 6.97581L2.45239 7.35083ZM5.11048 2.83641C3.42088 3.55695 2.22659 5.21559 2.18286 7.15882L2.58276 7.16782C2.62283 5.38677 3.71736 3.86537 5.2674 3.20435L5.11048 2.83641ZM5.48992 3.4933C5.43267 3.34189 5.39757 3.17949 5.38866 3.00989L4.98922 3.03087C5.00032 3.24229 5.04413 3.44529 5.11577 3.63476L5.48992 3.4933Z" fill="#222222"/>
</g>
<circle id="Ellipse 250" cx="10.9824" cy="8.86135" r="1.81057" stroke="#222222" stroke-miterlimit="10" stroke-linecap="round"/>
</g>
</svg>
