<svg width="18" height="19" viewBox="0 0 18 19" fill="none" xmlns="http://www.w3.org/2000/svg">
<path d="M2.88771 10.0554C3.79452 10.0578 4.70192 10.056 5.60932 10.056L5.61051 10.0566C6.53744 10.0566 7.46437 10.062 8.39131 10.0525L10.2221 10.0584C11.9676 10.0602 13.7132 10.0637 15.4587 10.0637C15.586 10.0637 15.718 10.059 15.8387 10.0247C16.0808 9.956 16.217 9.78672 16.2294 9.52983C16.2483 9.13976 16.0057 8.93555 15.5274 8.93555C13.7227 8.93732 11.9179 8.93377 10.1132 8.94443L8.38006 8.9462C6.57532 8.93377 4.77058 8.93614 2.96584 8.93614C2.85752 8.93614 2.74684 8.93851 2.64266 8.96277C2.40945 9.01723 2.26857 9.16521 2.24016 9.41026C2.1934 9.81158 2.43194 10.0543 2.88771 10.0554Z" fill="white"/>
</svg>
