<svg width="18" height="18" viewBox="0 0 18 18" fill="none" xmlns="http://www.w3.org/2000/svg">
<g id="solar:add-circle-bold_2">
<path id="Vector" d="M5.60932 9.55634C4.70192 9.55634 3.79452 9.55812 2.88771 9.55575C2.43194 9.55457 2.1934 9.31188 2.24016 8.91056C2.26857 8.66551 2.40945 8.51754 2.64266 8.46308C2.74684 8.43881 2.85752 8.43644 2.96584 8.43644C4.77058 8.43644 6.57532 8.43408 8.38006 8.44651L10.1132 8.44473C11.9179 8.43408 13.7227 8.43763 15.5274 8.43585C16.0057 8.43585 16.2483 8.64006 16.2294 9.03013C16.217 9.28702 16.0808 9.45631 15.8387 9.52497C15.718 9.5593 15.586 9.56404 15.4587 9.56404C13.7132 9.56404 11.9676 9.56048 10.2221 9.55871L8.39131 9.55279C7.46437 9.56226 6.53744 9.55693 5.61051 9.55693L5.60932 9.55634Z" fill="#222222"/>
</g>
</svg>
