<svg width="31" height="30" viewBox="0 0 31 30" fill="none" xmlns="http://www.w3.org/2000/svg">
<path d="M12.875 4.5H6.00962C5.45202 4.5 5 4.95202 5 5.50962V12.375C5 12.9326 5.45202 13.3846 6.00962 13.3846H12.875C13.4326 13.3846 13.8846 12.9326 13.8846 12.375V5.50962C13.8846 4.95202 13.4326 4.5 12.875 4.5Z" stroke="#222222" stroke-width="1.5" stroke-linecap="round" stroke-linejoin="round"/>
<path d="M24.9922 4.5H18.1268C17.5692 4.5 17.1172 4.95202 17.1172 5.50962V12.375C17.1172 12.9326 17.5692 13.3846 18.1268 13.3846H24.9922C25.5498 13.3846 26.0018 12.9326 26.0018 12.375V5.50962C26.0018 4.95202 25.5498 4.5 24.9922 4.5Z" stroke="#222222" stroke-width="1.5" stroke-linecap="round" stroke-linejoin="round"/>
<path d="M12.875 16.6152H6.00962C5.45202 16.6152 5 17.0673 5 17.6248V24.4902C5 25.0478 5.45202 25.4999 6.00962 25.4999H12.875C13.4326 25.4999 13.8846 25.0478 13.8846 24.4902V17.6248C13.8846 17.0673 13.4326 16.6152 12.875 16.6152Z" stroke="#222222" stroke-width="1.5" stroke-linecap="round" stroke-linejoin="round"/>
<path d="M24.9922 16.6152H18.1268C17.5692 16.6152 17.1172 17.0673 17.1172 17.6248V24.4902C17.1172 25.0478 17.5692 25.4999 18.1268 25.4999H24.9922C25.5498 25.4999 26.0018 25.0478 26.0018 24.4902V17.6248C26.0018 17.0673 25.5498 16.6152 24.9922 16.6152Z" stroke="#222222" stroke-width="1.5" stroke-linecap="round" stroke-linejoin="round"/>
</svg>
