<svg width="21" height="20" viewBox="0 0 21 20" fill="none" xmlns="http://www.w3.org/2000/svg">
<path d="M8.57813 3H4.0012C3.62947 3 3.32812 3.30135 3.32812 3.67308V8.25C3.32812 8.62173 3.62947 8.92308 4.0012 8.92308H8.57813C8.94986 8.92308 9.2512 8.62173 9.2512 8.25V3.67308C9.2512 3.30135 8.94986 3 8.57813 3Z" stroke="#222222" stroke-linecap="round" stroke-linejoin="round"/>
<path d="M16.6563 3H12.0793C11.7076 3 11.4062 3.30135 11.4062 3.67308V8.25C11.4062 8.62173 11.7076 8.92308 12.0793 8.92308H16.6563C17.028 8.92308 17.3293 8.62173 17.3293 8.25V3.67308C17.3293 3.30135 17.028 3 16.6563 3Z" stroke="#222222" stroke-linecap="round" stroke-linejoin="round"/>
<path d="M8.57813 11.0771H4.0012C3.62947 11.0771 3.32812 11.3785 3.32812 11.7502V16.3271C3.32812 16.6989 3.62947 17.0002 4.0012 17.0002H8.57813C8.94986 17.0002 9.2512 16.6989 9.2512 16.3271V11.7502C9.2512 11.3785 8.94986 11.0771 8.57813 11.0771Z" stroke="#222222" stroke-linecap="round" stroke-linejoin="round"/>
<path d="M16.6563 11.0771H12.0793C11.7076 11.0771 11.4062 11.3785 11.4062 11.7502V16.3271C11.4062 16.6989 11.7076 17.0002 12.0793 17.0002H16.6563C17.028 17.0002 17.3293 16.6989 17.3293 16.3271V11.7502C17.3293 11.3785 17.028 11.0771 16.6563 11.0771Z" stroke="#222222" stroke-linecap="round" stroke-linejoin="round"/>
</svg>
