<svg xmlns="http://www.w3.org/2000/svg" width="17" height="16" viewBox="0 0 17 16" fill="none">
  <path d="M12.1641 3.5C12.0606 3.20765 11.8691 2.95456 11.6158 2.77555C11.3626 2.59655 11.0601 2.50043 10.75 2.50043C10.4399 2.50043 10.1374 2.59655 9.88416 2.77555C9.63092 2.95456 9.4394 3.20765 9.33594 3.5H1.75V4.5H9.33594C9.4394 4.79235 9.63092 5.04544 9.88416 5.22445C10.1374 5.40346 10.4399 5.49957 10.75 5.49957C11.0601 5.49957 11.3626 5.40346 11.6158 5.22445C11.8691 5.04544 12.0606 4.79235 12.1641 4.5H14.75V3.5H12.1641ZM5.75 6.5C5.43993 6.50044 5.13759 6.59678 4.88443 6.77581C4.63127 6.95485 4.43968 7.2078 4.33594 7.5H1.75V8.5H4.33594C4.4394 8.79235 4.63093 9.04544 4.88416 9.22445C5.13739 9.40345 5.43989 9.49957 5.75 9.49957C6.06011 9.49957 6.36261 9.40345 6.61584 9.22445C6.86907 9.04544 7.0606 8.79235 7.16406 8.5H14.75V7.5H7.16406C7.06032 7.2078 6.86873 6.95485 6.61557 6.77581C6.36241 6.59678 6.06007 6.50044 5.75 6.5ZM10.75 10.5C10.4399 10.5004 10.1376 10.5968 9.88443 10.7758C9.63127 10.9548 9.43968 11.2078 9.33594 11.5H1.75V12.5H9.33594C9.4394 12.7923 9.63092 13.0454 9.88416 13.2244C10.1374 13.4035 10.4399 13.4996 10.75 13.4996C11.0601 13.4996 11.3626 13.4035 11.6158 13.2244C11.8691 13.0454 12.0606 12.7923 12.1641 12.5H14.75V11.5H12.1641C12.0603 11.2078 11.8687 10.9548 11.6156 10.7758C11.3624 10.5968 11.0601 10.5004 10.75 10.5Z" fill="#FF5310"/>
</svg>