<svg width="36" height="37" viewBox="0 0 36 37" fill="none" xmlns="http://www.w3.org/2000/svg">
<g id="solar:phone-bold">
<path id="Vector" d="M21.3457 20.3505L20.9174 20.7768C20.9174 20.7768 19.8981 21.7895 17.1169 19.0243C14.3357 16.2591 15.355 15.2464 15.355 15.2464L15.6242 14.9773C16.2896 14.3165 16.3527 13.2549 15.772 12.4793L14.5861 10.8953C13.867 9.93533 12.4788 9.80827 11.6552 10.6271L10.1776 12.0953C9.77003 12.5019 9.49709 13.0271 9.53003 13.6107C9.61474 15.1043 10.2905 18.3166 14.059 22.0644C18.0562 26.038 21.8068 26.1962 23.34 26.0531C23.8257 26.0079 24.2473 25.7613 24.5871 25.4225L25.9236 24.0936C26.8271 23.1966 26.573 21.6578 25.4172 21.03L23.6196 20.0521C22.861 19.6399 21.9386 19.7613 21.3457 20.3505Z" fill="#222222"/>
</g>
</svg>
