<svg width="17" height="17" viewBox="0 0 17 17" fill="none" xmlns="http://www.w3.org/2000/svg">
<path d="M13.9398 16V2.66667C13.9398 1.74619 13.1943 1 12.2748 1H3.95003C3.0305 1 2.28507 1.74619 2.28507 2.66667V16M13.9398 16L15.6047 16M13.9398 16H9.77737M2.28507 16L0.620117 16M2.28507 16H6.44746M5.61498 4.33331H6.44746M5.61498 7.66665H6.44746M9.77737 4.33331H10.6098M9.77737 7.66665H10.6098M6.44746 16V11.8333C6.44746 11.3731 6.82017 11 7.27994 11H8.94489C9.40466 11 9.77737 11.3731 9.77737 11.8333V16M6.44746 16H9.77737" stroke="#00D5E5" stroke-linecap="round" stroke-linejoin="round"/>
</svg>
