<svg width="21" height="22" viewBox="0 0 21 22" fill="none" xmlns="http://www.w3.org/2000/svg">
<path d="M6.43863 2.55005C5.08038 2.55005 3.97656 3.65387 3.97656 5.01212C3.97656 6.37036 5.08038 7.47418 6.43863 7.47418C7.79688 7.47418 8.9007 6.37036 8.9007 5.01212C8.9007 3.65387 7.79688 2.55005 6.43863 2.55005ZM6.43863 6.88704C5.40527 6.88704 4.5637 6.04548 4.5637 5.01212C4.5637 3.97875 5.40527 3.13719 6.43863 3.13719C7.47199 3.13719 8.31356 3.97875 8.31356 5.01212C8.31356 6.04548 7.47199 6.88704 6.43863 6.88704Z" fill="#222222" stroke="#222222" stroke-width="0.2"/>
<path d="M6.4418 1C4.23025 1 2.42969 2.80056 2.42969 5.01211C2.42969 7.14147 6.05429 11.8112 6.21086 12.0108C6.26566 12.0813 6.35177 12.1243 6.4418 12.1243C6.53183 12.1243 6.61794 12.0813 6.67274 12.0108C6.8254 11.8112 10.4539 7.14147 10.4539 5.01211C10.4539 2.80056 8.65336 1 6.4418 1ZM6.4418 11.3454C5.30667 9.8423 3.01683 6.50344 3.01683 5.01211C3.01683 3.12544 4.55121 1.58714 6.4418 1.58714C8.33239 1.58714 9.86678 3.12544 9.86678 5.01211C9.86678 6.6561 7.24422 10.2768 6.4418 11.3454Z" fill="#222222" stroke="#222222" stroke-width="0.2"/>
<path d="M20.0281 20.4H6.82812C6.22013 20.4 5.72813 19.908 5.72813 19.3C5.72813 18.692 6.22013 18.2 6.82812 18.2H11.2281C12.1641 18.2 12.9281 17.436 12.9281 16.5C12.9281 15.564 12.1641 14.8 11.2281 14.8H2.02813C1.42013 14.8 0.928125 14.308 0.928125 13.7C0.928125 13.092 1.42013 12.6 2.02813 12.6H4.82812C4.99213 12.6 5.12813 12.464 5.12813 12.3C5.12813 12.136 4.99213 12 4.82812 12H2.02813C1.09213 12 0.328125 12.764 0.328125 13.7C0.328125 14.636 1.09213 15.4 2.02813 15.4H11.2281C11.8361 15.4 12.3281 15.892 12.3281 16.5C12.3281 17.108 11.8361 17.6 11.2281 17.6H6.82812C5.89213 17.6 5.12813 18.364 5.12813 19.3C5.12813 20.236 5.89213 21 6.82812 21H20.0281C20.1921 21 20.3281 20.864 20.3281 20.7C20.3281 20.536 20.1921 20.4 20.0281 20.4Z" fill="#222222" stroke="#222222" stroke-width="0.2"/>
</svg>
