<svg xmlns="http://www.w3.org/2000/svg" width="16" height="16" viewBox="0 0 16 16" fill="none">
  <g clip-path="url(#clip0_3792_36444)">
    <path d="M14.6622 10.668C14.6622 9.5634 13.7847 8.66797 12.7022 8.66797C11.6197 8.66797 10.7422 9.5634 10.7422 10.668C10.7422 11.7725 11.6197 12.668 12.7022 12.668C13.7847 12.668 14.6622 11.7725 14.6622 10.668Z" stroke="#FF5310" stroke-width="0.98995"/>
    <path d="M7.47375 10.6667V9.66667C7.47375 8.40933 7.47375 7.78133 7.0909 7.39067C6.70804 7 6.0926 7 4.86042 7H4.46842C4.22603 7 4.10451 7 4.00194 7.008C3.38158 7.0578 2.79899 7.33184 2.35897 7.78084C1.91895 8.22983 1.65039 8.82431 1.60159 9.45733C1.59375 9.562 1.59375 9.68667 1.59375 9.93333C1.59375 9.99533 1.59375 10.0267 1.59571 10.052C1.60785 10.2104 1.675 10.3591 1.78508 10.4714C1.89516 10.5838 2.04092 10.6523 2.19612 10.6647C2.23485 10.6667 2.27364 10.6674 2.31242 10.6667H7.47375ZM7.47375 10.6667H10.7404" stroke="#FF5310" stroke-width="0.98995" stroke-linecap="round"/>
    <path d="M6.49031 10.6673C6.49031 11.1978 6.28381 11.7065 5.91624 12.0815C5.54867 12.4566 5.05014 12.6673 4.53031 12.6673C4.01049 12.6673 3.51195 12.4566 3.14438 12.0815C2.77681 11.7065 2.57031 11.1978 2.57031 10.6673M8.12365 3.33398H8.46861C9.25457 3.33398 9.64722 3.33398 9.96278 3.53332C10.279 3.73198 10.4547 4.09065 10.8056 4.80798L12.697 8.66732M12.1371 7.33398L12.582 6.99932C12.7538 6.86998 12.8401 6.80598 12.8995 6.72132C12.9402 6.6641 12.9718 6.60064 12.9929 6.53332C13.0236 6.43398 13.0236 6.32532 13.0236 6.10798C13.0236 5.69598 13.0236 5.49065 12.9374 5.33665C12.8795 5.23335 12.7956 5.14773 12.6944 5.08865C12.5441 5.00065 12.3416 5.00065 11.9385 5.00065H11.0636" stroke="#FF5310" stroke-width="0.98995" stroke-linecap="round"/>
    <path d="M12.7022 12.668C13.7847 12.668 14.6622 11.7725 14.6622 10.668C14.6622 9.5634 13.7847 8.66797 12.7022 8.66797C11.6197 8.66797 10.7422 9.5634 10.7422 10.668C10.7422 11.7725 11.6197 12.668 12.7022 12.668Z" stroke="#FF5310" stroke-width="0.98995"/>
  </g>
  <defs>
    <clipPath id="clip0_3792_36444">
      <rect width="15.68" height="16" fill="white" transform="translate(0.289062)"/>
    </clipPath>
  </defs>
</svg>