<svg width="23" height="23" viewBox="0 0 23 23" fill="none" xmlns="http://www.w3.org/2000/svg">
<g id="share-2">
<g id="Group 1410095712">
<path id="Vector" d="M16.0956 8.13262C17.4213 8.13262 18.4959 7.05797 18.4959 5.73233C18.4959 4.40668 17.4213 3.33203 16.0956 3.33203C14.77 3.33203 13.6953 4.40668 13.6953 5.73233C13.6953 7.05797 14.77 8.13262 16.0956 8.13262Z" stroke="#222222" stroke-linecap="round" stroke-linejoin="round"/>
<path id="Vector_2" d="M6.49405 13.7303C7.81969 13.7303 8.89434 12.6556 8.89434 11.33C8.89434 10.0043 7.81969 8.92969 6.49405 8.92969C5.1684 8.92969 4.09375 10.0043 4.09375 11.33C4.09375 12.6556 5.1684 13.7303 6.49405 13.7303Z" stroke="#222222" stroke-linecap="round" stroke-linejoin="round"/>
<path id="Vector_3" d="M16.0956 19.3318C17.4213 19.3318 18.4959 18.2572 18.4959 16.9315C18.4959 15.6059 17.4213 14.5312 16.0956 14.5312C14.77 14.5312 13.6953 15.6059 13.6953 16.9315C13.6953 18.2572 14.77 19.3318 16.0956 19.3318Z" stroke="#222222" stroke-linecap="round" stroke-linejoin="round"/>
<path id="Vector_4" d="M8.56641 12.5391L14.0311 15.7235" stroke="#222222" stroke-linecap="round" stroke-linejoin="round"/>
<path id="Vector_5" d="M14.0231 6.93945L8.56641 10.1238" stroke="#222222" stroke-linecap="round" stroke-linejoin="round"/>
</g>
</g>
</svg>
