<svg width="53" height="52" viewBox="0 0 53 52" fill="none" xmlns="http://www.w3.org/2000/svg">
<g id="solar:square-arrow-right-up-bold-duotone">
<g id="Group">
<rect id="Rectangle 22922" x="4.21875" y="4.72656" width="42.5455" height="42.5455" rx="4.71875" fill="#FF5310"/>
<path id="Vector" d="M33.8892 19.3516C33.8892 18.9206 33.718 18.5073 33.4133 18.2025C33.1085 17.8978 32.6952 17.7266 32.2642 17.7266H23.071C22.6401 17.7266 22.2267 17.8978 21.922 18.2025C21.6172 18.5073 21.446 18.9206 21.446 19.3516C21.446 19.7825 21.6172 20.1959 21.922 20.5006C22.2267 20.8054 22.6401 20.9766 23.071 20.9766H28.3404L18.859 30.4579C18.5629 30.7642 18.3989 31.1746 18.4024 31.6007C18.4059 32.0268 18.5766 32.4344 18.8778 32.7359C19.1789 33.0373 19.5864 33.2084 20.0125 33.2123C20.4385 33.2162 20.8491 33.0526 21.1557 32.7567L30.6392 23.2732V28.5447C30.6392 28.9757 30.8104 29.389 31.1152 29.6938C31.4199 29.9985 31.8332 30.1697 32.2642 30.1697C32.6952 30.1697 33.1085 29.9985 33.4133 29.6938C33.718 29.389 33.8892 28.9757 33.8892 28.5447V19.3494V19.3516Z" fill="white"/>
</g>
</g>
</svg>
