<svg width="22" height="21" viewBox="0 0 22 21" fill="none" xmlns="http://www.w3.org/2000/svg">
<path d="M19.0813 4.54483C17.297 2.85448 14.8932 1.89116 12.3775 1.85829C9.86185 1.82542 7.43124 2.72558 5.59896 4.36868C3.76668 6.01178 2.67614 8.26921 2.55765 10.6643C2.43915 13.0593 3.30196 15.4045 4.96389 17.2046L4.97117 17.2123C4.9845 17.2258 4.99703 17.2397 5.01157 17.2528C5.04147 17.2851 5.07542 17.3217 5.11542 17.3598C5.2723 17.5187 5.46191 17.6451 5.67239 17.7309C5.88286 17.8168 6.10967 17.8603 6.33861 17.8588C6.56755 17.8573 6.79369 17.8108 7.00289 17.7221C7.21209 17.6335 7.39984 17.5046 7.55439 17.3436C8.14904 16.7277 8.87131 16.2361 9.67552 15.8998C10.4797 15.5635 11.3484 15.3898 12.2267 15.3898C13.1049 15.3898 13.9736 15.5635 14.7778 15.8998C15.582 16.2361 16.3043 16.7277 16.8989 17.3436C17.0546 17.5055 17.2439 17.6347 17.4547 17.7232C17.6655 17.8117 17.8934 17.8575 18.1237 17.8577C18.3541 17.858 18.582 17.8126 18.793 17.7245C19.0041 17.6364 19.1936 17.5075 19.3496 17.346L19.4793 17.2112L19.4866 17.2035C21.1241 15.4413 21.9941 13.1498 21.919 10.797C21.8439 8.4442 20.8294 6.20741 19.0825 4.54329L19.0813 4.54483ZM11.5777 4.9203C11.5777 4.75689 11.6458 4.60017 11.7671 4.48462C11.8883 4.36907 12.0528 4.30415 12.2242 4.30415C12.3957 4.30415 12.5601 4.36907 12.6814 4.48462C12.8026 4.60017 12.8707 4.75689 12.8707 4.9203V6.15258C12.8707 6.31599 12.8026 6.47271 12.6814 6.58826C12.5601 6.70381 12.3957 6.76872 12.2242 6.76872C12.0528 6.76872 11.8883 6.70381 11.7671 6.58826C11.6458 6.47271 11.5777 6.31599 11.5777 6.15258V4.9203ZM7.05213 11.6979H5.7591C5.58764 11.6979 5.42319 11.6329 5.30195 11.5174C5.18071 11.4018 5.11259 11.2451 5.11259 11.0817C5.11259 10.9183 5.18071 10.7616 5.30195 10.646C5.42319 10.5305 5.58764 10.4656 5.7591 10.4656H7.05213C7.22359 10.4656 7.38804 10.5305 7.50928 10.646C7.63053 10.7616 7.69864 10.9183 7.69864 11.0817C7.69864 11.2451 7.63053 11.4018 7.50928 11.5174C7.38804 11.6329 7.22359 11.6979 7.05213 11.6979ZM9.02399 8.03181C8.90276 8.14728 8.73838 8.21214 8.56699 8.21214C8.3956 8.21214 8.23122 8.14728 8.10998 8.03181L7.19557 7.16074C7.07432 7.04518 7.00619 6.88845 7.00619 6.72502C7.00619 6.56159 7.07432 6.40485 7.19557 6.28929C7.31683 6.17373 7.48129 6.1088 7.65278 6.1088C7.82427 6.1088 7.98873 6.17373 8.10998 6.28929L9.02399 7.16074C9.14515 7.27628 9.2132 7.43294 9.2132 7.59628C9.2132 7.75962 9.14515 7.91628 9.02399 8.03181ZM15.0568 8.92137L13.1374 11.8288C13.0589 11.9325 12.9634 12.0235 12.8546 12.0984C12.5919 12.273 12.2675 12.3419 11.9518 12.29C11.6361 12.2382 11.3546 12.0698 11.1684 11.8213C10.9822 11.5729 10.9064 11.2645 10.9573 10.9631C11.0082 10.6617 11.1818 10.3916 11.4403 10.2114L14.4911 8.38225C14.5604 8.33618 14.6429 8.31148 14.7274 8.31148C14.812 8.31148 14.8945 8.33618 14.9638 8.38225C15.0509 8.44217 15.1096 8.53252 15.127 8.63354C15.1444 8.73456 15.1192 8.83804 15.0568 8.92137ZM16.3385 8.03181C16.2162 8.14249 16.0535 8.20327 15.8849 8.20122C15.7163 8.19916 15.5552 8.13442 15.436 8.0208C15.3168 7.90719 15.2489 7.75368 15.2467 7.59301C15.2446 7.43235 15.3083 7.27723 15.4245 7.16074L16.3385 6.28929C16.4597 6.17373 16.6242 6.1088 16.7957 6.1088C16.9672 6.1088 17.1316 6.17373 17.2529 6.28929C17.3741 6.40485 17.4423 6.56159 17.4423 6.72502C17.4423 6.88845 17.3741 7.04518 17.2529 7.16074L16.3385 8.03181ZM18.6894 11.6979H17.3963C17.2249 11.6979 17.0604 11.6329 16.9392 11.5174C16.8179 11.4018 16.7498 11.2451 16.7498 11.0817C16.7498 10.9183 16.8179 10.7616 16.9392 10.646C17.0604 10.5305 17.2249 10.4656 17.3963 10.4656H18.6894C18.8608 10.4656 19.0253 10.5305 19.1465 10.646C19.2678 10.7616 19.3359 10.9183 19.3359 11.0817C19.3359 11.2451 19.2678 11.4018 19.1465 11.5174C19.0253 11.6329 18.8608 11.6979 18.6894 11.6979Z" fill="#222222"/>
</svg>
