<svg width="21" height="20" viewBox="0 0 21 20" fill="none" xmlns="http://www.w3.org/2000/svg">
<path d="M9.90495 10.7552L12.1578 9.3379L10.7394 11.5923C10.7023 11.6415 10.6582 11.685 10.6084 11.7214C10.4799 11.8098 10.3219 11.8445 10.1681 11.8179C10.013 11.7912 9.8747 11.7044 9.78322 11.5763C9.69174 11.4482 9.65446 11.2893 9.67948 11.1339C9.7037 10.9834 9.78446 10.848 9.90495 10.7552Z" fill="#222222" stroke="#222222"/>
<path d="M10.3308 3C5.82086 3 2.16407 6.65314 2.16407 11.1631C2.1613 13.1584 2.8918 15.0852 4.21669 16.5772C4.25679 16.6209 4.29325 16.6647 4.33335 16.7048C4.41963 16.7982 4.52436 16.8726 4.64091 16.9235C4.75747 16.9743 4.88331 17.0003 5.01046 17C5.13761 16.9997 5.26331 16.9729 5.37959 16.9215C5.49586 16.87 5.60019 16.795 5.68596 16.7011C6.27714 16.0587 6.99517 15.5458 7.79466 15.195C8.59415 14.8443 9.45772 14.6631 10.3308 14.6631C11.2038 14.6631 12.0674 14.8443 12.8669 15.195C13.6664 15.5458 14.3844 16.0587 14.9756 16.7011C15.0614 16.795 15.1657 16.87 15.282 16.9215C15.3983 16.9729 15.5239 16.9997 15.6511 17C15.7783 17.0003 15.9041 16.9743 16.0206 16.9235C16.1372 16.8726 16.2419 16.7982 16.3282 16.7048L16.4449 16.5772C17.7698 15.0852 18.5003 13.1584 18.4975 11.1631C18.4975 6.65314 14.8407 3 10.3308 3Z" stroke="#222222" stroke-linecap="round" stroke-linejoin="round"/>
<path d="M10.3334 5.33301V6.49968M16.1667 11.1664H15.0001M5.66667 11.1664H4.5M7.0335 7.86651L6.20845 7.04145M13.6332 7.86651L14.4583 7.04145" stroke="#222222" stroke-miterlimit="10" stroke-linecap="round"/>
</svg>
