<svg width="24" height="25" viewBox="0 0 24 25" fill="none" xmlns="http://www.w3.org/2000/svg">
<g id="Star 4">
<path id="Star 1" d="M11.5924 2.76634C11.7207 2.37149 12.2793 2.37149 12.4076 2.76634L14.0941 7.95696C14.2663 8.4867 14.7599 8.84537 15.3169 8.84537H20.7747C21.1898 8.84537 21.3624 9.37663 21.0266 9.62066L16.6112 12.8286C16.1605 13.156 15.972 13.7364 16.1441 14.2661L17.8306 19.4567C17.9589 19.8516 17.507 20.1799 17.1711 19.9359L12.7557 16.7279C12.3051 16.4005 11.6949 16.4005 11.2443 16.7279L6.82887 19.9359C6.49299 20.1799 6.04107 19.8516 6.16936 19.4567L7.8559 14.2661C8.02802 13.7364 7.83946 13.156 7.38884 12.8286L2.97343 9.62066C2.63755 9.37663 2.81017 8.84537 3.22534 8.84537H8.68308C9.24009 8.84537 9.73374 8.4867 9.90587 7.95696L11.5924 2.76634Z" stroke="#85888C" stroke-width="0.857143"/>
</g>
</svg>
