<svg width="24" height="25" viewBox="0 0 24 25" fill="none" xmlns="http://www.w3.org/2000/svg">
<g id="Star 1">
<path id="Star 1_2" d="M11.1848 2.6339C11.4414 1.84421 12.5586 1.84421 12.8152 2.6339L14.5017 7.82452C14.6165 8.17769 14.9456 8.4168 15.3169 8.4168H20.7747C21.605 8.4168 21.9502 9.47932 21.2785 9.96738L16.8631 13.1754C16.5627 13.3936 16.4369 13.7805 16.5517 14.1337L18.2382 19.3243C18.4948 20.114 17.591 20.7707 16.9192 20.2826L12.5038 17.0746C12.2034 16.8564 11.7966 16.8564 11.4962 17.0746L7.08078 20.2826C6.40902 20.7707 5.50518 20.114 5.76177 19.3243L7.4483 14.1337C7.56305 13.7805 7.43735 13.3936 7.13693 13.1754L2.72152 9.96738C2.04977 9.47932 2.395 8.4168 3.22534 8.4168H8.68308C9.05442 8.4168 9.38352 8.17769 9.49827 7.82452L11.1848 2.6339Z" fill="#FF5310"/>
</g>
</svg>
