<svg width="30" height="30" viewBox="0 0 30 30" fill="none" xmlns="http://www.w3.org/2000/svg">
<circle cx="15" cy="15" r="15" fill="#00D5E5"/>
<rect width="17.5079" height="17.5079" transform="translate(6.24609 6.24609)" fill="#00D5E5"/>
<path d="M20.1065 21.5655V9.89356C20.1065 9.08778 19.4533 8.43457 18.6475 8.43457H11.3526C10.5468 8.43457 9.89356 9.08778 9.89356 9.89356V21.5655M20.1065 21.5655L21.5655 21.5655M20.1065 21.5655H16.459M9.89356 21.5655L8.43457 21.5655M9.89356 21.5655H13.541M12.8115 11.3525H13.541M12.8115 14.2705H13.541M16.459 11.3525H17.1885M16.459 14.2705H17.1885M13.541 21.5655V17.918C13.541 17.5151 13.8677 17.1885 14.2705 17.1885H15.7295C16.1324 17.1885 16.459 17.5151 16.459 17.918V21.5655M13.541 21.5655H16.459" stroke="#1D1B1B" stroke-width="0.7" stroke-linecap="round" stroke-linejoin="round"/>
</svg>
