<svg width="13" height="13" viewBox="0 0 13 13" fill="none" xmlns="http://www.w3.org/2000/svg">
<path d="M7.20313 9.16797C7.20313 9.25499 7.16856 9.33845 7.10702 9.39999C7.04549 9.46152 6.96203 9.49609 6.875 9.49609C6.67195 9.49609 6.47721 9.41543 6.33362 9.27185C6.19004 9.12826 6.10938 8.93353 6.10938 8.73047V6.54297C6.10938 6.51396 6.09785 6.48614 6.07734 6.46563C6.05683 6.44512 6.02901 6.43359 6 6.43359C5.91298 6.43359 5.82952 6.39902 5.76798 6.33749C5.70645 6.27595 5.67188 6.19249 5.67188 6.10547C5.67188 6.01844 5.70645 5.93498 5.76798 5.87345C5.82952 5.81191 5.91298 5.77734 6 5.77734C6.20306 5.77734 6.3978 5.85801 6.54138 6.00159C6.68496 6.14517 6.76563 6.33991 6.76563 6.54297V8.73047C6.76563 8.75948 6.77715 8.7873 6.79766 8.80781C6.81817 8.82832 6.84599 8.83984 6.875 8.83984C6.96203 8.83984 7.04549 8.87441 7.10702 8.93595C7.16856 8.99748 7.20313 9.08095 7.20313 9.16797ZM6.21875 4.68359C6.32691 4.68359 6.43265 4.65152 6.52258 4.59143C6.61251 4.53134 6.68261 4.44593 6.724 4.346C6.76539 4.24607 6.77622 4.13611 6.75512 4.03003C6.73402 3.92395 6.68193 3.8265 6.60545 3.75002C6.52897 3.67354 6.43153 3.62145 6.32544 3.60035C6.21936 3.57925 6.1094 3.59008 6.00947 3.63147C5.90954 3.67286 5.82413 3.74296 5.76404 3.83289C5.70395 3.92282 5.67188 4.02856 5.67188 4.13672C5.67188 4.28176 5.72949 4.42086 5.83205 4.52342C5.93461 4.62598 6.07371 4.68359 6.21875 4.68359ZM12.0156 6.54297C12.0156 7.64622 11.6885 8.72469 11.0755 9.64201C10.4626 10.5593 9.59143 11.2743 8.57216 11.6965C7.55289 12.1187 6.43131 12.2291 5.34926 12.0139C4.26721 11.7987 3.27329 11.2674 2.49317 10.4873C1.71306 9.70718 1.18179 8.71326 0.96656 7.63121C0.751326 6.54916 0.861792 5.42758 1.28399 4.40831C1.70618 3.38904 2.42114 2.51786 3.33846 1.90493C4.25578 1.29199 5.33425 0.964844 6.4375 0.964844C7.91638 0.966581 9.33419 1.55483 10.3799 2.60056C11.4256 3.64628 12.0139 5.06409 12.0156 6.54297ZM11.3594 6.54297C11.3594 5.56951 11.0707 4.61792 10.5299 3.80852C9.98907 2.99912 9.22038 2.36827 8.32102 1.99575C7.42167 1.62322 6.43204 1.52575 5.47729 1.71567C4.52254 1.90558 3.64555 2.37434 2.95721 3.06268C2.26887 3.75101 1.80011 4.62801 1.6102 5.58276C1.42029 6.53751 1.51776 7.52713 1.89028 8.42649C2.26281 9.32584 2.89366 10.0945 3.70306 10.6354C4.51245 11.1762 5.46405 11.4648 6.4375 11.4648C7.74242 11.4634 8.99348 10.9444 9.91619 10.0217C10.8389 9.09894 11.3579 7.84789 11.3594 6.54297Z" fill="#222222"/>
</svg>
