<svg width="32" height="43" viewBox="0 0 32 43" fill="none" xmlns="http://www.w3.org/2000/svg">
<path d="M15.9994 0.679688C7.32417 0.679688 0.285156 7.01549 0.285156 14.8225C0.285156 23.809 8.31498 35.2045 12.8946 40.9729C14.5083 43.0054 17.4906 43.0054 19.1042 40.9729C23.6839 35.2045 31.7137 23.809 31.7137 14.8225C31.7137 7.01549 24.6747 0.679688 15.9994 0.679688ZM15.9994 22.6797C14.7562 22.6797 13.541 22.311 12.5073 21.6204C11.4736 20.9297 10.6679 19.948 10.1922 18.7994C9.71645 17.6508 9.59197 16.387 9.83451 15.1677C10.077 13.9484 10.6757 12.8284 11.5548 11.9493C12.4338 11.0702 13.5539 10.4716 14.7732 10.229C15.9925 9.9865 17.2563 10.111 18.4049 10.5867C19.5534 11.0625 20.5351 11.8681 21.2258 12.9018C21.9165 13.9355 22.2852 15.1508 22.2852 16.394C22.2833 18.0605 21.6205 19.6582 20.4421 20.8366C19.2637 22.015 17.666 22.6779 15.9994 22.6797Z" fill="#FF5310"/>
</svg>
