<svg width="44" height="65" viewBox="0 0 44 65" fill="none" xmlns="http://www.w3.org/2000/svg">
<g id="solar:map-point-outline">
<path id="Vector" d="M21.9994 10.4863C13.3242 10.4863 6.28516 16.8221 6.28516 24.6292C6.28516 33.6157 14.315 45.0111 18.8946 50.7795C20.5083 52.8121 23.4906 52.8121 25.1042 50.7795C29.6839 45.0111 37.7137 33.6157 37.7137 24.6292C37.7137 16.8221 30.6747 10.4863 21.9994 10.4863ZM21.9994 32.4863C20.7562 32.4863 19.541 32.1177 18.5073 31.427C17.4736 30.7363 16.6679 29.7546 16.1922 28.6061C15.7164 27.4575 15.592 26.1936 15.8345 24.9743C16.077 23.755 16.6757 22.635 17.5548 21.7559C18.4338 20.8769 19.5539 20.2782 20.7732 20.0357C21.9925 19.7931 23.2563 19.9176 24.4049 20.3934C25.5534 20.8691 26.5351 21.6748 27.2258 22.7085C27.9165 23.7421 28.2852 24.9574 28.2852 26.2006C28.2833 27.8671 27.6205 29.4649 26.4421 30.6433C25.2637 31.8217 23.666 32.4845 21.9994 32.4863Z" fill="#222222"/>
</g>
</svg>
